G04 #@! TF.GenerationSoftware,KiCad,Pcbnew,5.1.5+dfsg1-2build2*
G04 #@! TF.CreationDate,2021-03-26T16:18:19-07:00*
G04 #@! TF.ProjectId,ssrcontroller_mcu,73737263-6f6e-4747-926f-6c6c65725f6d,rev?*
G04 #@! TF.SameCoordinates,Original*
G04 #@! TF.FileFunction,Legend,Top*
G04 #@! TF.FilePolarity,Positive*
%FSLAX46Y46*%
G04 Gerber Fmt 4.6, Leading zero omitted, Abs format (unit mm)*
G04 Created by KiCad (PCBNEW 5.1.5+dfsg1-2build2) date 2021-03-26 16:18:19*
%MOMM*%
%LPD*%
G04 APERTURE LIST*
%ADD10C,0.150000*%
%ADD11C,0.120000*%
%ADD12C,0.300000*%
%ADD13C,0.200000*%
G04 APERTURE END LIST*
D10*
X76652380Y-112694404D02*
X75652380Y-112694404D01*
X75652380Y-112456309D01*
X75700000Y-112313452D01*
X75795238Y-112218214D01*
X75890476Y-112170595D01*
X76080952Y-112122976D01*
X76223809Y-112122976D01*
X76414285Y-112170595D01*
X76509523Y-112218214D01*
X76604761Y-112313452D01*
X76652380Y-112456309D01*
X76652380Y-112694404D01*
X76652380Y-111170595D02*
X76652380Y-111742023D01*
X76652380Y-111456309D02*
X75652380Y-111456309D01*
X75795238Y-111551547D01*
X75890476Y-111646785D01*
X75938095Y-111742023D01*
X76652380Y-110218214D02*
X76652380Y-110789642D01*
X76652380Y-110503928D02*
X75652380Y-110503928D01*
X75795238Y-110599166D01*
X75890476Y-110694404D01*
X75938095Y-110789642D01*
X78192380Y-112218214D02*
X78192380Y-112694404D01*
X78668571Y-112742023D01*
X78620952Y-112694404D01*
X78573333Y-112599166D01*
X78573333Y-112361071D01*
X78620952Y-112265833D01*
X78668571Y-112218214D01*
X78763809Y-112170595D01*
X79001904Y-112170595D01*
X79097142Y-112218214D01*
X79144761Y-112265833D01*
X79192380Y-112361071D01*
X79192380Y-112599166D01*
X79144761Y-112694404D01*
X79097142Y-112742023D01*
X78192380Y-111884880D02*
X79192380Y-111551547D01*
X78192380Y-111218214D01*
X80780000Y-112170595D02*
X80732380Y-112265833D01*
X80732380Y-112408690D01*
X80780000Y-112551547D01*
X80875238Y-112646785D01*
X80970476Y-112694404D01*
X81160952Y-112742023D01*
X81303809Y-112742023D01*
X81494285Y-112694404D01*
X81589523Y-112646785D01*
X81684761Y-112551547D01*
X81732380Y-112408690D01*
X81732380Y-112313452D01*
X81684761Y-112170595D01*
X81637142Y-112122976D01*
X81303809Y-112122976D01*
X81303809Y-112313452D01*
X81732380Y-111694404D02*
X80732380Y-111694404D01*
X81732380Y-111122976D01*
X80732380Y-111122976D01*
X81732380Y-110646785D02*
X80732380Y-110646785D01*
X80732380Y-110408690D01*
X80780000Y-110265833D01*
X80875238Y-110170595D01*
X80970476Y-110122976D01*
X81160952Y-110075357D01*
X81303809Y-110075357D01*
X81494285Y-110122976D01*
X81589523Y-110170595D01*
X81684761Y-110265833D01*
X81732380Y-110408690D01*
X81732380Y-110646785D01*
X83272380Y-112837261D02*
X84272380Y-112503928D01*
X83272380Y-112170595D01*
X84272380Y-111837261D02*
X83272380Y-111837261D01*
X84272380Y-111361071D02*
X83272380Y-111361071D01*
X84272380Y-110789642D01*
X83272380Y-110789642D01*
X61771785Y-133802380D02*
X61295595Y-133802380D01*
X61295595Y-132802380D01*
X62105119Y-133278571D02*
X62438452Y-133278571D01*
X62581309Y-133802380D02*
X62105119Y-133802380D01*
X62105119Y-132802380D01*
X62581309Y-132802380D01*
X63009880Y-133802380D02*
X63009880Y-132802380D01*
X63247976Y-132802380D01*
X63390833Y-132850000D01*
X63486071Y-132945238D01*
X63533690Y-133040476D01*
X63581309Y-133230952D01*
X63581309Y-133373809D01*
X63533690Y-133564285D01*
X63486071Y-133659523D01*
X63390833Y-133754761D01*
X63247976Y-133802380D01*
X63009880Y-133802380D01*
X61771785Y-103322380D02*
X61295595Y-103322380D01*
X61295595Y-102322380D01*
X62105119Y-102798571D02*
X62438452Y-102798571D01*
X62581309Y-103322380D02*
X62105119Y-103322380D01*
X62105119Y-102322380D01*
X62581309Y-102322380D01*
X63009880Y-103322380D02*
X63009880Y-102322380D01*
X63247976Y-102322380D01*
X63390833Y-102370000D01*
X63486071Y-102465238D01*
X63533690Y-102560476D01*
X63581309Y-102750952D01*
X63581309Y-102893809D01*
X63533690Y-103084285D01*
X63486071Y-103179523D01*
X63390833Y-103274761D01*
X63247976Y-103322380D01*
X63009880Y-103322380D01*
X61771785Y-70302380D02*
X61295595Y-70302380D01*
X61295595Y-69302380D01*
X62105119Y-69778571D02*
X62438452Y-69778571D01*
X62581309Y-70302380D02*
X62105119Y-70302380D01*
X62105119Y-69302380D01*
X62581309Y-69302380D01*
X63009880Y-70302380D02*
X63009880Y-69302380D01*
X63247976Y-69302380D01*
X63390833Y-69350000D01*
X63486071Y-69445238D01*
X63533690Y-69540476D01*
X63581309Y-69730952D01*
X63581309Y-69873809D01*
X63533690Y-70064285D01*
X63486071Y-70159523D01*
X63390833Y-70254761D01*
X63247976Y-70302380D01*
X63009880Y-70302380D01*
X62491904Y-130310000D02*
X62396666Y-130262380D01*
X62253809Y-130262380D01*
X62110952Y-130310000D01*
X62015714Y-130405238D01*
X61968095Y-130500476D01*
X61920476Y-130690952D01*
X61920476Y-130833809D01*
X61968095Y-131024285D01*
X62015714Y-131119523D01*
X62110952Y-131214761D01*
X62253809Y-131262380D01*
X62349047Y-131262380D01*
X62491904Y-131214761D01*
X62539523Y-131167142D01*
X62539523Y-130833809D01*
X62349047Y-130833809D01*
X62491904Y-99830000D02*
X62396666Y-99782380D01*
X62253809Y-99782380D01*
X62110952Y-99830000D01*
X62015714Y-99925238D01*
X61968095Y-100020476D01*
X61920476Y-100210952D01*
X61920476Y-100353809D01*
X61968095Y-100544285D01*
X62015714Y-100639523D01*
X62110952Y-100734761D01*
X62253809Y-100782380D01*
X62349047Y-100782380D01*
X62491904Y-100734761D01*
X62539523Y-100687142D01*
X62539523Y-100353809D01*
X62349047Y-100353809D01*
X62491904Y-66810000D02*
X62396666Y-66762380D01*
X62253809Y-66762380D01*
X62110952Y-66810000D01*
X62015714Y-66905238D01*
X61968095Y-67000476D01*
X61920476Y-67190952D01*
X61920476Y-67333809D01*
X61968095Y-67524285D01*
X62015714Y-67619523D01*
X62110952Y-67714761D01*
X62253809Y-67762380D01*
X62349047Y-67762380D01*
X62491904Y-67714761D01*
X62539523Y-67667142D01*
X62539523Y-67333809D01*
X62349047Y-67333809D01*
X58585714Y-73052380D02*
X58585714Y-72052380D01*
X58823809Y-72052380D01*
X58966666Y-72100000D01*
X59061904Y-72195238D01*
X59109523Y-72290476D01*
X59157142Y-72480952D01*
X59157142Y-72623809D01*
X59109523Y-72814285D01*
X59061904Y-72909523D01*
X58966666Y-73004761D01*
X58823809Y-73052380D01*
X58585714Y-73052380D01*
X60109523Y-73052380D02*
X59538095Y-73052380D01*
X59823809Y-73052380D02*
X59823809Y-72052380D01*
X59728571Y-72195238D01*
X59633333Y-72290476D01*
X59538095Y-72338095D01*
X60728571Y-72052380D02*
X60823809Y-72052380D01*
X60919047Y-72100000D01*
X60966666Y-72147619D01*
X61014285Y-72242857D01*
X61061904Y-72433333D01*
X61061904Y-72671428D01*
X61014285Y-72861904D01*
X60966666Y-72957142D01*
X60919047Y-73004761D01*
X60823809Y-73052380D01*
X60728571Y-73052380D01*
X60633333Y-73004761D01*
X60585714Y-72957142D01*
X60538095Y-72861904D01*
X60490476Y-72671428D01*
X60490476Y-72433333D01*
X60538095Y-72242857D01*
X60585714Y-72147619D01*
X60633333Y-72100000D01*
X60728571Y-72052380D01*
X58951904Y-105862380D02*
X58951904Y-104862380D01*
X59190000Y-104862380D01*
X59332857Y-104910000D01*
X59428095Y-105005238D01*
X59475714Y-105100476D01*
X59523333Y-105290952D01*
X59523333Y-105433809D01*
X59475714Y-105624285D01*
X59428095Y-105719523D01*
X59332857Y-105814761D01*
X59190000Y-105862380D01*
X58951904Y-105862380D01*
X59856666Y-104862380D02*
X60523333Y-104862380D01*
X60094761Y-105862380D01*
X59061904Y-136452380D02*
X59061904Y-135452380D01*
X59300000Y-135452380D01*
X59442857Y-135500000D01*
X59538095Y-135595238D01*
X59585714Y-135690476D01*
X59633333Y-135880952D01*
X59633333Y-136023809D01*
X59585714Y-136214285D01*
X59538095Y-136309523D01*
X59442857Y-136404761D01*
X59300000Y-136452380D01*
X59061904Y-136452380D01*
X60490476Y-135452380D02*
X60300000Y-135452380D01*
X60204761Y-135500000D01*
X60157142Y-135547619D01*
X60061904Y-135690476D01*
X60014285Y-135880952D01*
X60014285Y-136261904D01*
X60061904Y-136357142D01*
X60109523Y-136404761D01*
X60204761Y-136452380D01*
X60395238Y-136452380D01*
X60490476Y-136404761D01*
X60538095Y-136357142D01*
X60585714Y-136261904D01*
X60585714Y-136023809D01*
X60538095Y-135928571D01*
X60490476Y-135880952D01*
X60395238Y-135833333D01*
X60204761Y-135833333D01*
X60109523Y-135880952D01*
X60061904Y-135928571D01*
X60014285Y-136023809D01*
X83058095Y-167140000D02*
X82962857Y-167092380D01*
X82820000Y-167092380D01*
X82677142Y-167140000D01*
X82581904Y-167235238D01*
X82534285Y-167330476D01*
X82486666Y-167520952D01*
X82486666Y-167663809D01*
X82534285Y-167854285D01*
X82581904Y-167949523D01*
X82677142Y-168044761D01*
X82820000Y-168092380D01*
X82915238Y-168092380D01*
X83058095Y-168044761D01*
X83105714Y-167997142D01*
X83105714Y-167663809D01*
X82915238Y-167663809D01*
X83534285Y-168092380D02*
X83534285Y-167092380D01*
X84105714Y-168092380D01*
X84105714Y-167092380D01*
X84581904Y-168092380D02*
X84581904Y-167092380D01*
X84820000Y-167092380D01*
X84962857Y-167140000D01*
X85058095Y-167235238D01*
X85105714Y-167330476D01*
X85153333Y-167520952D01*
X85153333Y-167663809D01*
X85105714Y-167854285D01*
X85058095Y-167949523D01*
X84962857Y-168044761D01*
X84820000Y-168092380D01*
X84581904Y-168092380D01*
X72168095Y-167711428D02*
X72930000Y-167711428D01*
X72549047Y-168092380D02*
X72549047Y-167330476D01*
X73930000Y-168092380D02*
X73358571Y-168092380D01*
X73644285Y-168092380D02*
X73644285Y-167092380D01*
X73549047Y-167235238D01*
X73453809Y-167330476D01*
X73358571Y-167378095D01*
X74310952Y-167187619D02*
X74358571Y-167140000D01*
X74453809Y-167092380D01*
X74691904Y-167092380D01*
X74787142Y-167140000D01*
X74834761Y-167187619D01*
X74882380Y-167282857D01*
X74882380Y-167378095D01*
X74834761Y-167520952D01*
X74263333Y-168092380D01*
X74882380Y-168092380D01*
X75168095Y-167092380D02*
X75501428Y-168092380D01*
X75834761Y-167092380D01*
X76168095Y-168092380D02*
X76168095Y-167092380D01*
X76406190Y-167092380D01*
X76549047Y-167140000D01*
X76644285Y-167235238D01*
X76691904Y-167330476D01*
X76739523Y-167520952D01*
X76739523Y-167663809D01*
X76691904Y-167854285D01*
X76644285Y-167949523D01*
X76549047Y-168044761D01*
X76406190Y-168092380D01*
X76168095Y-168092380D01*
X77739523Y-167997142D02*
X77691904Y-168044761D01*
X77549047Y-168092380D01*
X77453809Y-168092380D01*
X77310952Y-168044761D01*
X77215714Y-167949523D01*
X77168095Y-167854285D01*
X77120476Y-167663809D01*
X77120476Y-167520952D01*
X77168095Y-167330476D01*
X77215714Y-167235238D01*
X77310952Y-167140000D01*
X77453809Y-167092380D01*
X77549047Y-167092380D01*
X77691904Y-167140000D01*
X77739523Y-167187619D01*
X66936428Y-99402857D02*
X66936428Y-99069523D01*
X66412619Y-99069523D02*
X67412619Y-99069523D01*
X67412619Y-99545714D01*
X66412619Y-100355238D02*
X66936428Y-100355238D01*
X67031666Y-100307619D01*
X67079285Y-100212380D01*
X67079285Y-100021904D01*
X67031666Y-99926666D01*
X66460238Y-100355238D02*
X66412619Y-100260000D01*
X66412619Y-100021904D01*
X66460238Y-99926666D01*
X66555476Y-99879047D01*
X66650714Y-99879047D01*
X66745952Y-99926666D01*
X66793571Y-100021904D01*
X66793571Y-100260000D01*
X66841190Y-100355238D01*
X66412619Y-100974285D02*
X66460238Y-100879047D01*
X66555476Y-100831428D01*
X67412619Y-100831428D01*
X66460238Y-101307619D02*
X66412619Y-101402857D01*
X66412619Y-101593333D01*
X66460238Y-101688571D01*
X66555476Y-101736190D01*
X66603095Y-101736190D01*
X66698333Y-101688571D01*
X66745952Y-101593333D01*
X66745952Y-101450476D01*
X66793571Y-101355238D01*
X66888809Y-101307619D01*
X66936428Y-101307619D01*
X67031666Y-101355238D01*
X67079285Y-101450476D01*
X67079285Y-101593333D01*
X67031666Y-101688571D01*
X66412619Y-102307619D02*
X66460238Y-102212380D01*
X66507857Y-102164761D01*
X66603095Y-102117142D01*
X66888809Y-102117142D01*
X66984047Y-102164761D01*
X67031666Y-102212380D01*
X67079285Y-102307619D01*
X67079285Y-102450476D01*
X67031666Y-102545714D01*
X66984047Y-102593333D01*
X66888809Y-102640952D01*
X66603095Y-102640952D01*
X66507857Y-102593333D01*
X66460238Y-102545714D01*
X66412619Y-102450476D01*
X66412619Y-102307619D01*
X67079285Y-103069523D02*
X66412619Y-103069523D01*
X66984047Y-103069523D02*
X67031666Y-103117142D01*
X67079285Y-103212380D01*
X67079285Y-103355238D01*
X67031666Y-103450476D01*
X66936428Y-103498095D01*
X66412619Y-103498095D01*
X67365000Y-105260000D02*
X67412619Y-105164761D01*
X67412619Y-105021904D01*
X67365000Y-104879047D01*
X67269761Y-104783809D01*
X67174523Y-104736190D01*
X66984047Y-104688571D01*
X66841190Y-104688571D01*
X66650714Y-104736190D01*
X66555476Y-104783809D01*
X66460238Y-104879047D01*
X66412619Y-105021904D01*
X66412619Y-105117142D01*
X66460238Y-105260000D01*
X66507857Y-105307619D01*
X66841190Y-105307619D01*
X66841190Y-105117142D01*
X66412619Y-105736190D02*
X67079285Y-105736190D01*
X66888809Y-105736190D02*
X66984047Y-105783809D01*
X67031666Y-105831428D01*
X67079285Y-105926666D01*
X67079285Y-106021904D01*
X66412619Y-106498095D02*
X66460238Y-106402857D01*
X66507857Y-106355238D01*
X66603095Y-106307619D01*
X66888809Y-106307619D01*
X66984047Y-106355238D01*
X67031666Y-106402857D01*
X67079285Y-106498095D01*
X67079285Y-106640952D01*
X67031666Y-106736190D01*
X66984047Y-106783809D01*
X66888809Y-106831428D01*
X66603095Y-106831428D01*
X66507857Y-106783809D01*
X66460238Y-106736190D01*
X66412619Y-106640952D01*
X66412619Y-106498095D01*
X67079285Y-107688571D02*
X66412619Y-107688571D01*
X67079285Y-107260000D02*
X66555476Y-107260000D01*
X66460238Y-107307619D01*
X66412619Y-107402857D01*
X66412619Y-107545714D01*
X66460238Y-107640952D01*
X66507857Y-107688571D01*
X67079285Y-108164761D02*
X66079285Y-108164761D01*
X67031666Y-108164761D02*
X67079285Y-108260000D01*
X67079285Y-108450476D01*
X67031666Y-108545714D01*
X66984047Y-108593333D01*
X66888809Y-108640952D01*
X66603095Y-108640952D01*
X66507857Y-108593333D01*
X66460238Y-108545714D01*
X66412619Y-108450476D01*
X66412619Y-108260000D01*
X66460238Y-108164761D01*
X66460238Y-109783809D02*
X66412619Y-109926666D01*
X66412619Y-110164761D01*
X66460238Y-110260000D01*
X66507857Y-110307619D01*
X66603095Y-110355238D01*
X66698333Y-110355238D01*
X66793571Y-110307619D01*
X66841190Y-110260000D01*
X66888809Y-110164761D01*
X66936428Y-109974285D01*
X66984047Y-109879047D01*
X67031666Y-109831428D01*
X67126904Y-109783809D01*
X67222142Y-109783809D01*
X67317380Y-109831428D01*
X67365000Y-109879047D01*
X67412619Y-109974285D01*
X67412619Y-110212380D01*
X67365000Y-110355238D01*
X66460238Y-110736190D02*
X66412619Y-110879047D01*
X66412619Y-111117142D01*
X66460238Y-111212380D01*
X66507857Y-111259999D01*
X66603095Y-111307619D01*
X66698333Y-111307619D01*
X66793571Y-111260000D01*
X66841190Y-111212380D01*
X66888809Y-111117142D01*
X66936428Y-110926666D01*
X66984047Y-110831428D01*
X67031666Y-110783809D01*
X67126904Y-110736190D01*
X67222142Y-110736190D01*
X67317380Y-110783809D01*
X67365000Y-110831428D01*
X67412619Y-110926666D01*
X67412619Y-111164761D01*
X67365000Y-111307619D01*
X66412619Y-112307619D02*
X66888809Y-111974285D01*
X66412619Y-111736190D02*
X67412619Y-111736190D01*
X67412619Y-112117142D01*
X67365000Y-112212380D01*
X67317380Y-112260000D01*
X67222142Y-112307619D01*
X67079285Y-112307619D01*
X66984047Y-112260000D01*
X66936428Y-112212380D01*
X66888809Y-112117142D01*
X66888809Y-111736190D01*
X66507857Y-114069523D02*
X66460238Y-114021904D01*
X66412619Y-113879047D01*
X66412619Y-113783809D01*
X66460238Y-113640952D01*
X66555476Y-113545714D01*
X66650714Y-113498095D01*
X66841190Y-113450476D01*
X66984047Y-113450476D01*
X67174523Y-113498095D01*
X67269761Y-113545714D01*
X67365000Y-113640952D01*
X67412619Y-113783809D01*
X67412619Y-113879047D01*
X67365000Y-114021904D01*
X67317380Y-114069523D01*
X66412619Y-114640952D02*
X66460238Y-114545714D01*
X66507857Y-114498095D01*
X66603095Y-114450476D01*
X66888809Y-114450476D01*
X66984047Y-114498095D01*
X67031666Y-114545714D01*
X67079285Y-114640952D01*
X67079285Y-114783809D01*
X67031666Y-114879047D01*
X66984047Y-114926666D01*
X66888809Y-114974285D01*
X66603095Y-114974285D01*
X66507857Y-114926666D01*
X66460238Y-114879047D01*
X66412619Y-114783809D01*
X66412619Y-114640952D01*
X67079285Y-115402857D02*
X66412619Y-115402857D01*
X66984047Y-115402857D02*
X67031666Y-115450476D01*
X67079285Y-115545714D01*
X67079285Y-115688571D01*
X67031666Y-115783809D01*
X66936428Y-115831428D01*
X66412619Y-115831428D01*
X67079285Y-116164761D02*
X67079285Y-116545714D01*
X67412619Y-116307619D02*
X66555476Y-116307619D01*
X66460238Y-116355238D01*
X66412619Y-116450476D01*
X66412619Y-116545714D01*
X66412619Y-116879047D02*
X67079285Y-116879047D01*
X66888809Y-116879047D02*
X66984047Y-116926666D01*
X67031666Y-116974285D01*
X67079285Y-117069523D01*
X67079285Y-117164761D01*
X66412619Y-117640952D02*
X66460238Y-117545714D01*
X66507857Y-117498095D01*
X66603095Y-117450476D01*
X66888809Y-117450476D01*
X66984047Y-117498095D01*
X67031666Y-117545714D01*
X67079285Y-117640952D01*
X67079285Y-117783809D01*
X67031666Y-117879047D01*
X66984047Y-117926666D01*
X66888809Y-117974285D01*
X66603095Y-117974285D01*
X66507857Y-117926666D01*
X66460238Y-117879047D01*
X66412619Y-117783809D01*
X66412619Y-117640952D01*
X66412619Y-118545714D02*
X66460238Y-118450476D01*
X66555476Y-118402857D01*
X67412619Y-118402857D01*
X66412619Y-119069523D02*
X66460238Y-118974285D01*
X66555476Y-118926666D01*
X67412619Y-118926666D01*
X66460238Y-119831428D02*
X66412619Y-119736190D01*
X66412619Y-119545714D01*
X66460238Y-119450476D01*
X66555476Y-119402857D01*
X66936428Y-119402857D01*
X67031666Y-119450476D01*
X67079285Y-119545714D01*
X67079285Y-119736190D01*
X67031666Y-119831428D01*
X66936428Y-119879047D01*
X66841190Y-119879047D01*
X66745952Y-119402857D01*
X66412619Y-120307619D02*
X67079285Y-120307619D01*
X66888809Y-120307619D02*
X66984047Y-120355238D01*
X67031666Y-120402857D01*
X67079285Y-120498095D01*
X67079285Y-120593333D01*
X67412619Y-121545714D02*
X66412619Y-121879047D01*
X67412619Y-122212380D01*
X66412619Y-123069523D02*
X66412619Y-122498095D01*
X66412619Y-122783809D02*
X67412619Y-122783809D01*
X67269761Y-122688571D01*
X67174523Y-122593333D01*
X67126904Y-122498095D01*
X66507857Y-123498095D02*
X66460238Y-123545714D01*
X66412619Y-123498095D01*
X66460238Y-123450476D01*
X66507857Y-123498095D01*
X66412619Y-123498095D01*
X67412619Y-124164761D02*
X67412619Y-124259999D01*
X67365000Y-124355238D01*
X67317380Y-124402857D01*
X67222142Y-124450476D01*
X67031666Y-124498095D01*
X66793571Y-124498095D01*
X66603095Y-124450476D01*
X66507857Y-124402857D01*
X66460238Y-124355238D01*
X66412619Y-124259999D01*
X66412619Y-124164761D01*
X66460238Y-124069523D01*
X66507857Y-124021904D01*
X66603095Y-123974285D01*
X66793571Y-123926666D01*
X67031666Y-123926666D01*
X67222142Y-123974285D01*
X67317380Y-124021904D01*
X67365000Y-124069523D01*
X67412619Y-124164761D01*
X64857857Y-90640952D02*
X64810238Y-90593333D01*
X64762619Y-90450476D01*
X64762619Y-90355238D01*
X64810238Y-90212380D01*
X64905476Y-90117142D01*
X65000714Y-90069523D01*
X65191190Y-90021904D01*
X65334047Y-90021904D01*
X65524523Y-90069523D01*
X65619761Y-90117142D01*
X65715000Y-90212380D01*
X65762619Y-90355238D01*
X65762619Y-90450476D01*
X65715000Y-90593333D01*
X65667380Y-90640952D01*
X64762619Y-91212380D02*
X64810238Y-91117142D01*
X64857857Y-91069523D01*
X64953095Y-91021904D01*
X65238809Y-91021904D01*
X65334047Y-91069523D01*
X65381666Y-91117142D01*
X65429285Y-91212380D01*
X65429285Y-91355238D01*
X65381666Y-91450476D01*
X65334047Y-91498095D01*
X65238809Y-91545714D01*
X64953095Y-91545714D01*
X64857857Y-91498095D01*
X64810238Y-91450476D01*
X64762619Y-91355238D01*
X64762619Y-91212380D01*
X64762619Y-92402857D02*
X65762619Y-92402857D01*
X64810238Y-92402857D02*
X64762619Y-92307619D01*
X64762619Y-92117142D01*
X64810238Y-92021904D01*
X64857857Y-91974285D01*
X64953095Y-91926666D01*
X65238809Y-91926666D01*
X65334047Y-91974285D01*
X65381666Y-92021904D01*
X65429285Y-92117142D01*
X65429285Y-92307619D01*
X65381666Y-92402857D01*
X64810238Y-93260000D02*
X64762619Y-93164761D01*
X64762619Y-92974285D01*
X64810238Y-92879047D01*
X64905476Y-92831428D01*
X65286428Y-92831428D01*
X65381666Y-92879047D01*
X65429285Y-92974285D01*
X65429285Y-93164761D01*
X65381666Y-93260000D01*
X65286428Y-93307619D01*
X65191190Y-93307619D01*
X65095952Y-92831428D01*
X64762619Y-94926666D02*
X65286428Y-94926666D01*
X65381666Y-94879047D01*
X65429285Y-94783809D01*
X65429285Y-94593333D01*
X65381666Y-94498095D01*
X64810238Y-94926666D02*
X64762619Y-94831428D01*
X64762619Y-94593333D01*
X64810238Y-94498095D01*
X64905476Y-94450476D01*
X65000714Y-94450476D01*
X65095952Y-94498095D01*
X65143571Y-94593333D01*
X65143571Y-94831428D01*
X65191190Y-94926666D01*
X65429285Y-95307619D02*
X64762619Y-95545714D01*
X65429285Y-95783809D01*
X64762619Y-96593333D02*
X65286428Y-96593333D01*
X65381666Y-96545714D01*
X65429285Y-96450476D01*
X65429285Y-96260000D01*
X65381666Y-96164761D01*
X64810238Y-96593333D02*
X64762619Y-96498095D01*
X64762619Y-96260000D01*
X64810238Y-96164761D01*
X64905476Y-96117142D01*
X65000714Y-96117142D01*
X65095952Y-96164761D01*
X65143571Y-96260000D01*
X65143571Y-96498095D01*
X65191190Y-96593333D01*
X64762619Y-97069523D02*
X65429285Y-97069523D01*
X65762619Y-97069523D02*
X65715000Y-97021904D01*
X65667380Y-97069523D01*
X65715000Y-97117142D01*
X65762619Y-97069523D01*
X65667380Y-97069523D01*
X64762619Y-97688571D02*
X64810238Y-97593333D01*
X64905476Y-97545714D01*
X65762619Y-97545714D01*
X64762619Y-98498095D02*
X65286428Y-98498095D01*
X65381666Y-98450476D01*
X65429285Y-98355238D01*
X65429285Y-98164761D01*
X65381666Y-98069523D01*
X64810238Y-98498095D02*
X64762619Y-98402857D01*
X64762619Y-98164761D01*
X64810238Y-98069523D01*
X64905476Y-98021904D01*
X65000714Y-98021904D01*
X65095952Y-98069523D01*
X65143571Y-98164761D01*
X65143571Y-98402857D01*
X65191190Y-98498095D01*
X64762619Y-98974285D02*
X65762619Y-98974285D01*
X65381666Y-98974285D02*
X65429285Y-99069523D01*
X65429285Y-99260000D01*
X65381666Y-99355238D01*
X65334047Y-99402857D01*
X65238809Y-99450476D01*
X64953095Y-99450476D01*
X64857857Y-99402857D01*
X64810238Y-99355238D01*
X64762619Y-99260000D01*
X64762619Y-99069523D01*
X64810238Y-98974285D01*
X64762619Y-100021904D02*
X64810238Y-99926666D01*
X64905476Y-99879047D01*
X65762619Y-99879047D01*
X64810238Y-100783809D02*
X64762619Y-100688571D01*
X64762619Y-100498095D01*
X64810238Y-100402857D01*
X64905476Y-100355238D01*
X65286428Y-100355238D01*
X65381666Y-100402857D01*
X65429285Y-100498095D01*
X65429285Y-100688571D01*
X65381666Y-100783809D01*
X65286428Y-100831428D01*
X65191190Y-100831428D01*
X65095952Y-100355238D01*
X64762619Y-102450476D02*
X65286428Y-102450476D01*
X65381666Y-102402857D01*
X65429285Y-102307619D01*
X65429285Y-102117142D01*
X65381666Y-102021904D01*
X64810238Y-102450476D02*
X64762619Y-102355238D01*
X64762619Y-102117142D01*
X64810238Y-102021904D01*
X64905476Y-101974285D01*
X65000714Y-101974285D01*
X65095952Y-102021904D01*
X65143571Y-102117142D01*
X65143571Y-102355238D01*
X65191190Y-102450476D01*
X65429285Y-102783809D02*
X65429285Y-103164761D01*
X65762619Y-102926666D02*
X64905476Y-102926666D01*
X64810238Y-102974285D01*
X64762619Y-103069523D01*
X64762619Y-103164761D01*
X65429285Y-104688571D02*
X64619761Y-104688571D01*
X64524523Y-104640952D01*
X64476904Y-104593333D01*
X64429285Y-104498095D01*
X64429285Y-104355238D01*
X64476904Y-104260000D01*
X64810238Y-104688571D02*
X64762619Y-104593333D01*
X64762619Y-104402857D01*
X64810238Y-104307619D01*
X64857857Y-104260000D01*
X64953095Y-104212380D01*
X65238809Y-104212380D01*
X65334047Y-104260000D01*
X65381666Y-104307619D01*
X65429285Y-104402857D01*
X65429285Y-104593333D01*
X65381666Y-104688571D01*
X64762619Y-105164761D02*
X65429285Y-105164761D01*
X65762619Y-105164761D02*
X65715000Y-105117142D01*
X65667380Y-105164761D01*
X65715000Y-105212380D01*
X65762619Y-105164761D01*
X65667380Y-105164761D01*
X65429285Y-105498095D02*
X65429285Y-105879047D01*
X65762619Y-105640952D02*
X64905476Y-105640952D01*
X64810238Y-105688571D01*
X64762619Y-105783809D01*
X64762619Y-105879047D01*
X64762619Y-106212380D02*
X65762619Y-106212380D01*
X64762619Y-106640952D02*
X65286428Y-106640952D01*
X65381666Y-106593333D01*
X65429285Y-106498095D01*
X65429285Y-106355238D01*
X65381666Y-106260000D01*
X65334047Y-106212380D01*
X65429285Y-107545714D02*
X64762619Y-107545714D01*
X65429285Y-107117142D02*
X64905476Y-107117142D01*
X64810238Y-107164761D01*
X64762619Y-107259999D01*
X64762619Y-107402857D01*
X64810238Y-107498095D01*
X64857857Y-107545714D01*
X64762619Y-108021904D02*
X65762619Y-108021904D01*
X65381666Y-108021904D02*
X65429285Y-108117142D01*
X65429285Y-108307619D01*
X65381666Y-108402857D01*
X65334047Y-108450476D01*
X65238809Y-108498095D01*
X64953095Y-108498095D01*
X64857857Y-108450476D01*
X64810238Y-108402857D01*
X64762619Y-108307619D01*
X64762619Y-108117142D01*
X64810238Y-108021904D01*
X64857857Y-108926666D02*
X64810238Y-108974285D01*
X64762619Y-108926666D01*
X64810238Y-108879047D01*
X64857857Y-108926666D01*
X64762619Y-108926666D01*
X64810238Y-109831428D02*
X64762619Y-109736190D01*
X64762619Y-109545714D01*
X64810238Y-109450476D01*
X64857857Y-109402857D01*
X64953095Y-109355238D01*
X65238809Y-109355238D01*
X65334047Y-109402857D01*
X65381666Y-109450476D01*
X65429285Y-109545714D01*
X65429285Y-109736190D01*
X65381666Y-109831428D01*
X64762619Y-110402857D02*
X64810238Y-110307619D01*
X64857857Y-110259999D01*
X64953095Y-110212380D01*
X65238809Y-110212380D01*
X65334047Y-110259999D01*
X65381666Y-110307619D01*
X65429285Y-110402857D01*
X65429285Y-110545714D01*
X65381666Y-110640952D01*
X65334047Y-110688571D01*
X65238809Y-110736190D01*
X64953095Y-110736190D01*
X64857857Y-110688571D01*
X64810238Y-110640952D01*
X64762619Y-110545714D01*
X64762619Y-110402857D01*
X64762619Y-111164761D02*
X65429285Y-111164761D01*
X65334047Y-111164761D02*
X65381666Y-111212380D01*
X65429285Y-111307619D01*
X65429285Y-111450476D01*
X65381666Y-111545714D01*
X65286428Y-111593333D01*
X64762619Y-111593333D01*
X65286428Y-111593333D02*
X65381666Y-111640952D01*
X65429285Y-111736190D01*
X65429285Y-111879047D01*
X65381666Y-111974285D01*
X65286428Y-112021904D01*
X64762619Y-112021904D01*
X65810238Y-113212380D02*
X64524523Y-112355238D01*
X65048333Y-113498095D02*
X65048333Y-113974285D01*
X64762619Y-113402857D02*
X65762619Y-113736190D01*
X64762619Y-114069523D01*
X64762619Y-114402857D02*
X65429285Y-114402857D01*
X65238809Y-114402857D02*
X65334047Y-114450476D01*
X65381666Y-114498095D01*
X65429285Y-114593333D01*
X65429285Y-114688571D01*
X64810238Y-115450476D02*
X64762619Y-115355238D01*
X64762619Y-115164761D01*
X64810238Y-115069523D01*
X64857857Y-115021904D01*
X64953095Y-114974285D01*
X65238809Y-114974285D01*
X65334047Y-115021904D01*
X65381666Y-115069523D01*
X65429285Y-115164761D01*
X65429285Y-115355238D01*
X65381666Y-115450476D01*
X65429285Y-115736190D02*
X65429285Y-116117142D01*
X65762619Y-115879047D02*
X64905476Y-115879047D01*
X64810238Y-115926666D01*
X64762619Y-116021904D01*
X64762619Y-116117142D01*
X65429285Y-116879047D02*
X64762619Y-116879047D01*
X65429285Y-116450476D02*
X64905476Y-116450476D01*
X64810238Y-116498095D01*
X64762619Y-116593333D01*
X64762619Y-116736190D01*
X64810238Y-116831428D01*
X64857857Y-116879047D01*
X64762619Y-117355238D02*
X65429285Y-117355238D01*
X65238809Y-117355238D02*
X65334047Y-117402857D01*
X65381666Y-117450476D01*
X65429285Y-117545714D01*
X65429285Y-117640952D01*
X65429285Y-118402857D02*
X64762619Y-118402857D01*
X65429285Y-117974285D02*
X64905476Y-117974285D01*
X64810238Y-118021904D01*
X64762619Y-118117142D01*
X64762619Y-118259999D01*
X64810238Y-118355238D01*
X64857857Y-118402857D01*
X64810238Y-118831428D02*
X64762619Y-118926666D01*
X64762619Y-119117142D01*
X64810238Y-119212380D01*
X64905476Y-119259999D01*
X64953095Y-119259999D01*
X65048333Y-119212380D01*
X65095952Y-119117142D01*
X65095952Y-118974285D01*
X65143571Y-118879047D01*
X65238809Y-118831428D01*
X65286428Y-118831428D01*
X65381666Y-118879047D01*
X65429285Y-118974285D01*
X65429285Y-119117142D01*
X65381666Y-119212380D01*
X65762619Y-119593333D02*
X65762619Y-120212380D01*
X65381666Y-119879047D01*
X65381666Y-120021904D01*
X65334047Y-120117142D01*
X65286428Y-120164761D01*
X65191190Y-120212380D01*
X64953095Y-120212380D01*
X64857857Y-120164761D01*
X64810238Y-120117142D01*
X64762619Y-120021904D01*
X64762619Y-119736190D01*
X64810238Y-119640952D01*
X64857857Y-119593333D01*
X64762619Y-121164761D02*
X64762619Y-120593333D01*
X64762619Y-120879047D02*
X65762619Y-120879047D01*
X65619761Y-120783809D01*
X65524523Y-120688571D01*
X65476904Y-120593333D01*
X65429285Y-122021904D02*
X64762619Y-122021904D01*
X65810238Y-121783809D02*
X65095952Y-121545714D01*
X65095952Y-122164761D01*
X65810238Y-123259999D02*
X64524523Y-122402857D01*
X64810238Y-123545714D02*
X64762619Y-123688571D01*
X64762619Y-123926666D01*
X64810238Y-124021904D01*
X64857857Y-124069523D01*
X64953095Y-124117142D01*
X65048333Y-124117142D01*
X65143571Y-124069523D01*
X65191190Y-124021904D01*
X65238809Y-123926666D01*
X65286428Y-123736190D01*
X65334047Y-123640952D01*
X65381666Y-123593333D01*
X65476904Y-123545714D01*
X65572142Y-123545714D01*
X65667380Y-123593333D01*
X65715000Y-123640952D01*
X65762619Y-123736190D01*
X65762619Y-123974285D01*
X65715000Y-124117142D01*
X64810238Y-124498095D02*
X64762619Y-124640952D01*
X64762619Y-124879047D01*
X64810238Y-124974285D01*
X64857857Y-125021904D01*
X64953095Y-125069523D01*
X65048333Y-125069523D01*
X65143571Y-125021904D01*
X65191190Y-124974285D01*
X65238809Y-124879047D01*
X65286428Y-124688571D01*
X65334047Y-124593333D01*
X65381666Y-124545714D01*
X65476904Y-124498095D01*
X65572142Y-124498095D01*
X65667380Y-124545714D01*
X65715000Y-124593333D01*
X65762619Y-124688571D01*
X65762619Y-124926666D01*
X65715000Y-125069523D01*
X64762619Y-126069523D02*
X65238809Y-125736190D01*
X64762619Y-125498095D02*
X65762619Y-125498095D01*
X65762619Y-125879047D01*
X65715000Y-125974285D01*
X65667380Y-126021904D01*
X65572142Y-126069523D01*
X65429285Y-126069523D01*
X65334047Y-126021904D01*
X65286428Y-125974285D01*
X65238809Y-125879047D01*
X65238809Y-125498095D01*
X64857857Y-127069523D02*
X64810238Y-127021904D01*
X64762619Y-126879047D01*
X64762619Y-126783809D01*
X64810238Y-126640952D01*
X64905476Y-126545714D01*
X65000714Y-126498095D01*
X65191190Y-126450476D01*
X65334047Y-126450476D01*
X65524523Y-126498095D01*
X65619761Y-126545714D01*
X65715000Y-126640952D01*
X65762619Y-126783809D01*
X65762619Y-126879047D01*
X65715000Y-127021904D01*
X65667380Y-127069523D01*
X64762619Y-127640952D02*
X64810238Y-127545714D01*
X64857857Y-127498095D01*
X64953095Y-127450476D01*
X65238809Y-127450476D01*
X65334047Y-127498095D01*
X65381666Y-127545714D01*
X65429285Y-127640952D01*
X65429285Y-127783809D01*
X65381666Y-127879047D01*
X65334047Y-127926666D01*
X65238809Y-127974285D01*
X64953095Y-127974285D01*
X64857857Y-127926666D01*
X64810238Y-127879047D01*
X64762619Y-127783809D01*
X64762619Y-127640952D01*
X65429285Y-128402857D02*
X64762619Y-128402857D01*
X65334047Y-128402857D02*
X65381666Y-128450476D01*
X65429285Y-128545714D01*
X65429285Y-128688571D01*
X65381666Y-128783809D01*
X65286428Y-128831428D01*
X64762619Y-128831428D01*
X65429285Y-129164761D02*
X65429285Y-129545714D01*
X65762619Y-129307619D02*
X64905476Y-129307619D01*
X64810238Y-129355238D01*
X64762619Y-129450476D01*
X64762619Y-129545714D01*
X64762619Y-129879047D02*
X65429285Y-129879047D01*
X65238809Y-129879047D02*
X65334047Y-129926666D01*
X65381666Y-129974285D01*
X65429285Y-130069523D01*
X65429285Y-130164761D01*
X64762619Y-130640952D02*
X64810238Y-130545714D01*
X64857857Y-130498095D01*
X64953095Y-130450476D01*
X65238809Y-130450476D01*
X65334047Y-130498095D01*
X65381666Y-130545714D01*
X65429285Y-130640952D01*
X65429285Y-130783809D01*
X65381666Y-130879047D01*
X65334047Y-130926666D01*
X65238809Y-130974285D01*
X64953095Y-130974285D01*
X64857857Y-130926666D01*
X64810238Y-130879047D01*
X64762619Y-130783809D01*
X64762619Y-130640952D01*
X64762619Y-131545714D02*
X64810238Y-131450476D01*
X64905476Y-131402857D01*
X65762619Y-131402857D01*
X64762619Y-132069523D02*
X64810238Y-131974285D01*
X64905476Y-131926666D01*
X65762619Y-131926666D01*
X64810238Y-132831428D02*
X64762619Y-132736190D01*
X64762619Y-132545714D01*
X64810238Y-132450476D01*
X64905476Y-132402857D01*
X65286428Y-132402857D01*
X65381666Y-132450476D01*
X65429285Y-132545714D01*
X65429285Y-132736190D01*
X65381666Y-132831428D01*
X65286428Y-132879047D01*
X65191190Y-132879047D01*
X65095952Y-132402857D01*
X64762619Y-133307619D02*
X65429285Y-133307619D01*
X65238809Y-133307619D02*
X65334047Y-133355238D01*
X65381666Y-133402857D01*
X65429285Y-133498095D01*
X65429285Y-133593333D01*
D11*
X107950000Y-163830000D02*
X107950000Y-134620000D01*
X100330000Y-163830000D02*
X107950000Y-163830000D01*
X107950000Y-132080000D02*
X107950000Y-102870000D01*
X100330000Y-132080000D02*
X107950000Y-132080000D01*
X107950000Y-76200000D02*
X107950000Y-69850000D01*
X107950000Y-99060000D02*
X100330000Y-99060000D01*
X107950000Y-99060000D02*
X107950000Y-76200000D01*
X45720000Y-152400000D02*
X45720000Y-124460000D01*
X57150000Y-152400000D02*
X45720000Y-152400000D01*
X57150000Y-124460000D02*
X57150000Y-152400000D01*
X45720000Y-124460000D02*
X57150000Y-124460000D01*
X45720000Y-121920000D02*
X45720000Y-93980000D01*
X57150000Y-121920000D02*
X45720000Y-121920000D01*
X57150000Y-93980000D02*
X57150000Y-121920000D01*
X45720000Y-93980000D02*
X57150000Y-93980000D01*
X45720000Y-60960000D02*
X57150000Y-60960000D01*
X45720000Y-88900000D02*
X45720000Y-60960000D01*
X46990000Y-88900000D02*
X45720000Y-88900000D01*
X57150000Y-88900000D02*
X46990000Y-88900000D01*
X57150000Y-60960000D02*
X57150000Y-88900000D01*
D10*
X57205714Y-174442380D02*
X57205714Y-173442380D01*
X57443809Y-173442380D01*
X57586666Y-173490000D01*
X57681904Y-173585238D01*
X57729523Y-173680476D01*
X57777142Y-173870952D01*
X57777142Y-174013809D01*
X57729523Y-174204285D01*
X57681904Y-174299523D01*
X57586666Y-174394761D01*
X57443809Y-174442380D01*
X57205714Y-174442380D01*
X58729523Y-174442380D02*
X58158095Y-174442380D01*
X58443809Y-174442380D02*
X58443809Y-173442380D01*
X58348571Y-173585238D01*
X58253333Y-173680476D01*
X58158095Y-173728095D01*
X59062857Y-173442380D02*
X59681904Y-173442380D01*
X59348571Y-173823333D01*
X59491428Y-173823333D01*
X59586666Y-173870952D01*
X59634285Y-173918571D01*
X59681904Y-174013809D01*
X59681904Y-174251904D01*
X59634285Y-174347142D01*
X59586666Y-174394761D01*
X59491428Y-174442380D01*
X59205714Y-174442380D01*
X59110476Y-174394761D01*
X59062857Y-174347142D01*
X57205714Y-160472380D02*
X57205714Y-159472380D01*
X57443809Y-159472380D01*
X57586666Y-159520000D01*
X57681904Y-159615238D01*
X57729523Y-159710476D01*
X57777142Y-159900952D01*
X57777142Y-160043809D01*
X57729523Y-160234285D01*
X57681904Y-160329523D01*
X57586666Y-160424761D01*
X57443809Y-160472380D01*
X57205714Y-160472380D01*
X58729523Y-160472380D02*
X58158095Y-160472380D01*
X58443809Y-160472380D02*
X58443809Y-159472380D01*
X58348571Y-159615238D01*
X58253333Y-159710476D01*
X58158095Y-159758095D01*
X59110476Y-159567619D02*
X59158095Y-159520000D01*
X59253333Y-159472380D01*
X59491428Y-159472380D01*
X59586666Y-159520000D01*
X59634285Y-159567619D01*
X59681904Y-159662857D01*
X59681904Y-159758095D01*
X59634285Y-159900952D01*
X59062857Y-160472380D01*
X59681904Y-160472380D01*
X50061904Y-151582380D02*
X50061904Y-150582380D01*
X50300000Y-150582380D01*
X50442857Y-150630000D01*
X50538095Y-150725238D01*
X50585714Y-150820476D01*
X50633333Y-151010952D01*
X50633333Y-151153809D01*
X50585714Y-151344285D01*
X50538095Y-151439523D01*
X50442857Y-151534761D01*
X50300000Y-151582380D01*
X50061904Y-151582380D01*
X51204761Y-151010952D02*
X51109523Y-150963333D01*
X51061904Y-150915714D01*
X51014285Y-150820476D01*
X51014285Y-150772857D01*
X51061904Y-150677619D01*
X51109523Y-150630000D01*
X51204761Y-150582380D01*
X51395238Y-150582380D01*
X51490476Y-150630000D01*
X51538095Y-150677619D01*
X51585714Y-150772857D01*
X51585714Y-150820476D01*
X51538095Y-150915714D01*
X51490476Y-150963333D01*
X51395238Y-151010952D01*
X51204761Y-151010952D01*
X51109523Y-151058571D01*
X51061904Y-151106190D01*
X51014285Y-151201428D01*
X51014285Y-151391904D01*
X51061904Y-151487142D01*
X51109523Y-151534761D01*
X51204761Y-151582380D01*
X51395238Y-151582380D01*
X51490476Y-151534761D01*
X51538095Y-151487142D01*
X51585714Y-151391904D01*
X51585714Y-151201428D01*
X51538095Y-151106190D01*
X51490476Y-151058571D01*
X51395238Y-151010952D01*
X50061904Y-121102380D02*
X50061904Y-120102380D01*
X50300000Y-120102380D01*
X50442857Y-120150000D01*
X50538095Y-120245238D01*
X50585714Y-120340476D01*
X50633333Y-120530952D01*
X50633333Y-120673809D01*
X50585714Y-120864285D01*
X50538095Y-120959523D01*
X50442857Y-121054761D01*
X50300000Y-121102380D01*
X50061904Y-121102380D01*
X51490476Y-120435714D02*
X51490476Y-121102380D01*
X51252380Y-120054761D02*
X51014285Y-120769047D01*
X51633333Y-120769047D01*
X50061904Y-88082380D02*
X50061904Y-87082380D01*
X50300000Y-87082380D01*
X50442857Y-87130000D01*
X50538095Y-87225238D01*
X50585714Y-87320476D01*
X50633333Y-87510952D01*
X50633333Y-87653809D01*
X50585714Y-87844285D01*
X50538095Y-87939523D01*
X50442857Y-88034761D01*
X50300000Y-88082380D01*
X50061904Y-88082380D01*
X51014285Y-87177619D02*
X51061904Y-87130000D01*
X51157142Y-87082380D01*
X51395238Y-87082380D01*
X51490476Y-87130000D01*
X51538095Y-87177619D01*
X51585714Y-87272857D01*
X51585714Y-87368095D01*
X51538095Y-87510952D01*
X50966666Y-88082380D01*
X51585714Y-88082380D01*
X57705714Y-124626666D02*
X58181904Y-124626666D01*
X57610476Y-124912380D02*
X57943809Y-123912380D01*
X58277142Y-124912380D01*
X58562857Y-124007619D02*
X58610476Y-123960000D01*
X58705714Y-123912380D01*
X58943809Y-123912380D01*
X59039047Y-123960000D01*
X59086666Y-124007619D01*
X59134285Y-124102857D01*
X59134285Y-124198095D01*
X59086666Y-124340952D01*
X58515238Y-124912380D01*
X59134285Y-124912380D01*
X57705714Y-94146666D02*
X58181904Y-94146666D01*
X57610476Y-94432380D02*
X57943809Y-93432380D01*
X58277142Y-94432380D01*
X59134285Y-94432380D02*
X58562857Y-94432380D01*
X58848571Y-94432380D02*
X58848571Y-93432380D01*
X58753333Y-93575238D01*
X58658095Y-93670476D01*
X58562857Y-93718095D01*
X57705714Y-61126666D02*
X58181904Y-61126666D01*
X57610476Y-61412380D02*
X57943809Y-60412380D01*
X58277142Y-61412380D01*
X58800952Y-60412380D02*
X58896190Y-60412380D01*
X58991428Y-60460000D01*
X59039047Y-60507619D01*
X59086666Y-60602857D01*
X59134285Y-60793333D01*
X59134285Y-61031428D01*
X59086666Y-61221904D01*
X59039047Y-61317142D01*
X58991428Y-61364761D01*
X58896190Y-61412380D01*
X58800952Y-61412380D01*
X58705714Y-61364761D01*
X58658095Y-61317142D01*
X58610476Y-61221904D01*
X58562857Y-61031428D01*
X58562857Y-60793333D01*
X58610476Y-60602857D01*
X58658095Y-60507619D01*
X58705714Y-60460000D01*
X58800952Y-60412380D01*
X96972380Y-150598095D02*
X95972380Y-150598095D01*
X95972380Y-150360000D01*
X96020000Y-150217142D01*
X96115238Y-150121904D01*
X96210476Y-150074285D01*
X96400952Y-150026666D01*
X96543809Y-150026666D01*
X96734285Y-150074285D01*
X96829523Y-150121904D01*
X96924761Y-150217142D01*
X96972380Y-150360000D01*
X96972380Y-150598095D01*
X96972380Y-149550476D02*
X96972380Y-149360000D01*
X96924761Y-149264761D01*
X96877142Y-149217142D01*
X96734285Y-149121904D01*
X96543809Y-149074285D01*
X96162857Y-149074285D01*
X96067619Y-149121904D01*
X96020000Y-149169523D01*
X95972380Y-149264761D01*
X95972380Y-149455238D01*
X96020000Y-149550476D01*
X96067619Y-149598095D01*
X96162857Y-149645714D01*
X96400952Y-149645714D01*
X96496190Y-149598095D01*
X96543809Y-149550476D01*
X96591428Y-149455238D01*
X96591428Y-149264761D01*
X96543809Y-149169523D01*
X96496190Y-149121904D01*
X96400952Y-149074285D01*
X96972380Y-118848095D02*
X95972380Y-118848095D01*
X95972380Y-118610000D01*
X96020000Y-118467142D01*
X96115238Y-118371904D01*
X96210476Y-118324285D01*
X96400952Y-118276666D01*
X96543809Y-118276666D01*
X96734285Y-118324285D01*
X96829523Y-118371904D01*
X96924761Y-118467142D01*
X96972380Y-118610000D01*
X96972380Y-118848095D01*
X95972380Y-117371904D02*
X95972380Y-117848095D01*
X96448571Y-117895714D01*
X96400952Y-117848095D01*
X96353333Y-117752857D01*
X96353333Y-117514761D01*
X96400952Y-117419523D01*
X96448571Y-117371904D01*
X96543809Y-117324285D01*
X96781904Y-117324285D01*
X96877142Y-117371904D01*
X96924761Y-117419523D01*
X96972380Y-117514761D01*
X96972380Y-117752857D01*
X96924761Y-117848095D01*
X96877142Y-117895714D01*
X96972380Y-85828095D02*
X95972380Y-85828095D01*
X95972380Y-85590000D01*
X96020000Y-85447142D01*
X96115238Y-85351904D01*
X96210476Y-85304285D01*
X96400952Y-85256666D01*
X96543809Y-85256666D01*
X96734285Y-85304285D01*
X96829523Y-85351904D01*
X96924761Y-85447142D01*
X96972380Y-85590000D01*
X96972380Y-85828095D01*
X95972380Y-84923333D02*
X95972380Y-84304285D01*
X96353333Y-84637619D01*
X96353333Y-84494761D01*
X96400952Y-84399523D01*
X96448571Y-84351904D01*
X96543809Y-84304285D01*
X96781904Y-84304285D01*
X96877142Y-84351904D01*
X96924761Y-84399523D01*
X96972380Y-84494761D01*
X96972380Y-84780476D01*
X96924761Y-84875714D01*
X96877142Y-84923333D01*
X104695714Y-94146666D02*
X105171904Y-94146666D01*
X104600476Y-94432380D02*
X104933809Y-93432380D01*
X105267142Y-94432380D01*
X105505238Y-93432380D02*
X106124285Y-93432380D01*
X105790952Y-93813333D01*
X105933809Y-93813333D01*
X106029047Y-93860952D01*
X106076666Y-93908571D01*
X106124285Y-94003809D01*
X106124285Y-94241904D01*
X106076666Y-94337142D01*
X106029047Y-94384761D01*
X105933809Y-94432380D01*
X105648095Y-94432380D01*
X105552857Y-94384761D01*
X105505238Y-94337142D01*
X104124285Y-91511428D02*
X104886190Y-91511428D01*
X104505238Y-91892380D02*
X104505238Y-91130476D01*
X105838571Y-90892380D02*
X105362380Y-90892380D01*
X105314761Y-91368571D01*
X105362380Y-91320952D01*
X105457619Y-91273333D01*
X105695714Y-91273333D01*
X105790952Y-91320952D01*
X105838571Y-91368571D01*
X105886190Y-91463809D01*
X105886190Y-91701904D01*
X105838571Y-91797142D01*
X105790952Y-91844761D01*
X105695714Y-91892380D01*
X105457619Y-91892380D01*
X105362380Y-91844761D01*
X105314761Y-91797142D01*
X106171904Y-90892380D02*
X106505238Y-91892380D01*
X106838571Y-90892380D01*
X104648095Y-96020000D02*
X104552857Y-95972380D01*
X104410000Y-95972380D01*
X104267142Y-96020000D01*
X104171904Y-96115238D01*
X104124285Y-96210476D01*
X104076666Y-96400952D01*
X104076666Y-96543809D01*
X104124285Y-96734285D01*
X104171904Y-96829523D01*
X104267142Y-96924761D01*
X104410000Y-96972380D01*
X104505238Y-96972380D01*
X104648095Y-96924761D01*
X104695714Y-96877142D01*
X104695714Y-96543809D01*
X104505238Y-96543809D01*
X105124285Y-96972380D02*
X105124285Y-95972380D01*
X105695714Y-96972380D01*
X105695714Y-95972380D01*
X106171904Y-96972380D02*
X106171904Y-95972380D01*
X106410000Y-95972380D01*
X106552857Y-96020000D01*
X106648095Y-96115238D01*
X106695714Y-96210476D01*
X106743333Y-96400952D01*
X106743333Y-96543809D01*
X106695714Y-96734285D01*
X106648095Y-96829523D01*
X106552857Y-96924761D01*
X106410000Y-96972380D01*
X106171904Y-96972380D01*
X104695714Y-158916666D02*
X105171904Y-158916666D01*
X104600476Y-159202380D02*
X104933809Y-158202380D01*
X105267142Y-159202380D01*
X105505238Y-158202380D02*
X106171904Y-158202380D01*
X105743333Y-159202380D01*
X104124285Y-156281428D02*
X104886190Y-156281428D01*
X104505238Y-156662380D02*
X104505238Y-155900476D01*
X105838571Y-155662380D02*
X105362380Y-155662380D01*
X105314761Y-156138571D01*
X105362380Y-156090952D01*
X105457619Y-156043333D01*
X105695714Y-156043333D01*
X105790952Y-156090952D01*
X105838571Y-156138571D01*
X105886190Y-156233809D01*
X105886190Y-156471904D01*
X105838571Y-156567142D01*
X105790952Y-156614761D01*
X105695714Y-156662380D01*
X105457619Y-156662380D01*
X105362380Y-156614761D01*
X105314761Y-156567142D01*
X106171904Y-155662380D02*
X106505238Y-156662380D01*
X106838571Y-155662380D01*
X104648095Y-160790000D02*
X104552857Y-160742380D01*
X104410000Y-160742380D01*
X104267142Y-160790000D01*
X104171904Y-160885238D01*
X104124285Y-160980476D01*
X104076666Y-161170952D01*
X104076666Y-161313809D01*
X104124285Y-161504285D01*
X104171904Y-161599523D01*
X104267142Y-161694761D01*
X104410000Y-161742380D01*
X104505238Y-161742380D01*
X104648095Y-161694761D01*
X104695714Y-161647142D01*
X104695714Y-161313809D01*
X104505238Y-161313809D01*
X105124285Y-161742380D02*
X105124285Y-160742380D01*
X105695714Y-161742380D01*
X105695714Y-160742380D01*
X106171904Y-161742380D02*
X106171904Y-160742380D01*
X106410000Y-160742380D01*
X106552857Y-160790000D01*
X106648095Y-160885238D01*
X106695714Y-160980476D01*
X106743333Y-161170952D01*
X106743333Y-161313809D01*
X106695714Y-161504285D01*
X106648095Y-161599523D01*
X106552857Y-161694761D01*
X106410000Y-161742380D01*
X106171904Y-161742380D01*
X104648095Y-129040000D02*
X104552857Y-128992380D01*
X104410000Y-128992380D01*
X104267142Y-129040000D01*
X104171904Y-129135238D01*
X104124285Y-129230476D01*
X104076666Y-129420952D01*
X104076666Y-129563809D01*
X104124285Y-129754285D01*
X104171904Y-129849523D01*
X104267142Y-129944761D01*
X104410000Y-129992380D01*
X104505238Y-129992380D01*
X104648095Y-129944761D01*
X104695714Y-129897142D01*
X104695714Y-129563809D01*
X104505238Y-129563809D01*
X105124285Y-129992380D02*
X105124285Y-128992380D01*
X105695714Y-129992380D01*
X105695714Y-128992380D01*
X106171904Y-129992380D02*
X106171904Y-128992380D01*
X106410000Y-128992380D01*
X106552857Y-129040000D01*
X106648095Y-129135238D01*
X106695714Y-129230476D01*
X106743333Y-129420952D01*
X106743333Y-129563809D01*
X106695714Y-129754285D01*
X106648095Y-129849523D01*
X106552857Y-129944761D01*
X106410000Y-129992380D01*
X106171904Y-129992380D01*
X104695714Y-127166666D02*
X105171904Y-127166666D01*
X104600476Y-127452380D02*
X104933809Y-126452380D01*
X105267142Y-127452380D01*
X106029047Y-126452380D02*
X105838571Y-126452380D01*
X105743333Y-126500000D01*
X105695714Y-126547619D01*
X105600476Y-126690476D01*
X105552857Y-126880952D01*
X105552857Y-127261904D01*
X105600476Y-127357142D01*
X105648095Y-127404761D01*
X105743333Y-127452380D01*
X105933809Y-127452380D01*
X106029047Y-127404761D01*
X106076666Y-127357142D01*
X106124285Y-127261904D01*
X106124285Y-127023809D01*
X106076666Y-126928571D01*
X106029047Y-126880952D01*
X105933809Y-126833333D01*
X105743333Y-126833333D01*
X105648095Y-126880952D01*
X105600476Y-126928571D01*
X105552857Y-127023809D01*
X104124285Y-124531428D02*
X104886190Y-124531428D01*
X104505238Y-124912380D02*
X104505238Y-124150476D01*
X105838571Y-123912380D02*
X105362380Y-123912380D01*
X105314761Y-124388571D01*
X105362380Y-124340952D01*
X105457619Y-124293333D01*
X105695714Y-124293333D01*
X105790952Y-124340952D01*
X105838571Y-124388571D01*
X105886190Y-124483809D01*
X105886190Y-124721904D01*
X105838571Y-124817142D01*
X105790952Y-124864761D01*
X105695714Y-124912380D01*
X105457619Y-124912380D01*
X105362380Y-124864761D01*
X105314761Y-124817142D01*
X106171904Y-123912380D02*
X106505238Y-124912380D01*
X106838571Y-123912380D01*
X102489047Y-152471428D02*
X103250952Y-152471428D01*
X102870000Y-152852380D02*
X102870000Y-152090476D01*
X102489047Y-120721428D02*
X103250952Y-120721428D01*
X102870000Y-121102380D02*
X102870000Y-120340476D01*
X102941428Y-140080952D02*
X102941428Y-139319047D01*
X102941428Y-108330952D02*
X102941428Y-107569047D01*
X102489047Y-87701428D02*
X103250952Y-87701428D01*
X102870000Y-88082380D02*
X102870000Y-87320476D01*
X102941428Y-75310952D02*
X102941428Y-74549047D01*
D12*
X107394285Y-138540952D02*
X107489523Y-138636190D01*
X107584761Y-138921904D01*
X107584761Y-139112380D01*
X107489523Y-139398095D01*
X107299047Y-139588571D01*
X107108571Y-139683809D01*
X106727619Y-139779047D01*
X106441904Y-139779047D01*
X106060952Y-139683809D01*
X105870476Y-139588571D01*
X105680000Y-139398095D01*
X105584761Y-139112380D01*
X105584761Y-138921904D01*
X105680000Y-138636190D01*
X105775238Y-138540952D01*
X107584761Y-137683809D02*
X105584761Y-137683809D01*
X106537142Y-137683809D02*
X106537142Y-136540952D01*
X107584761Y-136540952D02*
X105584761Y-136540952D01*
X105775238Y-135683809D02*
X105680000Y-135588571D01*
X105584761Y-135398095D01*
X105584761Y-134921904D01*
X105680000Y-134731428D01*
X105775238Y-134636190D01*
X105965714Y-134540952D01*
X106156190Y-134540952D01*
X106441904Y-134636190D01*
X107584761Y-135779047D01*
X107584761Y-134540952D01*
X107394285Y-106790952D02*
X107489523Y-106886190D01*
X107584761Y-107171904D01*
X107584761Y-107362380D01*
X107489523Y-107648095D01*
X107299047Y-107838571D01*
X107108571Y-107933809D01*
X106727619Y-108029047D01*
X106441904Y-108029047D01*
X106060952Y-107933809D01*
X105870476Y-107838571D01*
X105680000Y-107648095D01*
X105584761Y-107362380D01*
X105584761Y-107171904D01*
X105680000Y-106886190D01*
X105775238Y-106790952D01*
X107584761Y-105933809D02*
X105584761Y-105933809D01*
X106537142Y-105933809D02*
X106537142Y-104790952D01*
X107584761Y-104790952D02*
X105584761Y-104790952D01*
X107584761Y-102790952D02*
X107584761Y-103933809D01*
X107584761Y-103362380D02*
X105584761Y-103362380D01*
X105870476Y-103552857D01*
X106060952Y-103743333D01*
X106156190Y-103933809D01*
X107394285Y-73770952D02*
X107489523Y-73866190D01*
X107584761Y-74151904D01*
X107584761Y-74342380D01*
X107489523Y-74628095D01*
X107299047Y-74818571D01*
X107108571Y-74913809D01*
X106727619Y-75009047D01*
X106441904Y-75009047D01*
X106060952Y-74913809D01*
X105870476Y-74818571D01*
X105680000Y-74628095D01*
X105584761Y-74342380D01*
X105584761Y-74151904D01*
X105680000Y-73866190D01*
X105775238Y-73770952D01*
X107584761Y-72913809D02*
X105584761Y-72913809D01*
X106537142Y-72913809D02*
X106537142Y-71770952D01*
X107584761Y-71770952D02*
X105584761Y-71770952D01*
X105584761Y-70437619D02*
X105584761Y-70247142D01*
X105680000Y-70056666D01*
X105775238Y-69961428D01*
X105965714Y-69866190D01*
X106346666Y-69770952D01*
X106822857Y-69770952D01*
X107203809Y-69866190D01*
X107394285Y-69961428D01*
X107489523Y-70056666D01*
X107584761Y-70247142D01*
X107584761Y-70437619D01*
X107489523Y-70628095D01*
X107394285Y-70723333D01*
X107203809Y-70818571D01*
X106822857Y-70913809D01*
X106346666Y-70913809D01*
X105965714Y-70818571D01*
X105775238Y-70723333D01*
X105680000Y-70628095D01*
X105584761Y-70437619D01*
X46085238Y-166624285D02*
X48085238Y-166624285D01*
X46085238Y-167767142D01*
X48085238Y-167767142D01*
X48085238Y-168529047D02*
X46085238Y-169862380D01*
X48085238Y-169862380D02*
X46085238Y-168529047D01*
X48085238Y-170338571D02*
X48085238Y-171481428D01*
X46085238Y-170910000D02*
X48085238Y-170910000D01*
X46180476Y-153924285D02*
X46085238Y-154210000D01*
X46085238Y-154686190D01*
X46180476Y-154876666D01*
X46275714Y-154971904D01*
X46466190Y-155067142D01*
X46656666Y-155067142D01*
X46847142Y-154971904D01*
X46942380Y-154876666D01*
X47037619Y-154686190D01*
X47132857Y-154305238D01*
X47228095Y-154114761D01*
X47323333Y-154019523D01*
X47513809Y-153924285D01*
X47704285Y-153924285D01*
X47894761Y-154019523D01*
X47990000Y-154114761D01*
X48085238Y-154305238D01*
X48085238Y-154781428D01*
X47990000Y-155067142D01*
X47132857Y-155924285D02*
X47132857Y-156590952D01*
X46085238Y-156876666D02*
X46085238Y-155924285D01*
X48085238Y-155924285D01*
X48085238Y-156876666D01*
X46085238Y-158686190D02*
X46085238Y-157733809D01*
X48085238Y-157733809D01*
X46275714Y-139589047D02*
X46180476Y-139493809D01*
X46085238Y-139208095D01*
X46085238Y-139017619D01*
X46180476Y-138731904D01*
X46370952Y-138541428D01*
X46561428Y-138446190D01*
X46942380Y-138350952D01*
X47228095Y-138350952D01*
X47609047Y-138446190D01*
X47799523Y-138541428D01*
X47990000Y-138731904D01*
X48085238Y-139017619D01*
X48085238Y-139208095D01*
X47990000Y-139493809D01*
X47894761Y-139589047D01*
X46085238Y-140446190D02*
X48085238Y-140446190D01*
X47132857Y-140446190D02*
X47132857Y-141589047D01*
X46085238Y-141589047D02*
X48085238Y-141589047D01*
X47894761Y-142446190D02*
X47990000Y-142541428D01*
X48085238Y-142731904D01*
X48085238Y-143208095D01*
X47990000Y-143398571D01*
X47894761Y-143493809D01*
X47704285Y-143589047D01*
X47513809Y-143589047D01*
X47228095Y-143493809D01*
X46085238Y-142350952D01*
X46085238Y-143589047D01*
X46275714Y-109109047D02*
X46180476Y-109013809D01*
X46085238Y-108728095D01*
X46085238Y-108537619D01*
X46180476Y-108251904D01*
X46370952Y-108061428D01*
X46561428Y-107966190D01*
X46942380Y-107870952D01*
X47228095Y-107870952D01*
X47609047Y-107966190D01*
X47799523Y-108061428D01*
X47990000Y-108251904D01*
X48085238Y-108537619D01*
X48085238Y-108728095D01*
X47990000Y-109013809D01*
X47894761Y-109109047D01*
X46085238Y-109966190D02*
X48085238Y-109966190D01*
X47132857Y-109966190D02*
X47132857Y-111109047D01*
X46085238Y-111109047D02*
X48085238Y-111109047D01*
X46085238Y-113109047D02*
X46085238Y-111966190D01*
X46085238Y-112537619D02*
X48085238Y-112537619D01*
X47799523Y-112347142D01*
X47609047Y-112156666D01*
X47513809Y-111966190D01*
X46275714Y-76089047D02*
X46180476Y-75993809D01*
X46085238Y-75708095D01*
X46085238Y-75517619D01*
X46180476Y-75231904D01*
X46370952Y-75041428D01*
X46561428Y-74946190D01*
X46942380Y-74850952D01*
X47228095Y-74850952D01*
X47609047Y-74946190D01*
X47799523Y-75041428D01*
X47990000Y-75231904D01*
X48085238Y-75517619D01*
X48085238Y-75708095D01*
X47990000Y-75993809D01*
X47894761Y-76089047D01*
X46085238Y-76946190D02*
X48085238Y-76946190D01*
X47132857Y-76946190D02*
X47132857Y-78089047D01*
X46085238Y-78089047D02*
X48085238Y-78089047D01*
X48085238Y-79422380D02*
X48085238Y-79612857D01*
X47990000Y-79803333D01*
X47894761Y-79898571D01*
X47704285Y-79993809D01*
X47323333Y-80089047D01*
X46847142Y-80089047D01*
X46466190Y-79993809D01*
X46275714Y-79898571D01*
X46180476Y-79803333D01*
X46085238Y-79612857D01*
X46085238Y-79422380D01*
X46180476Y-79231904D01*
X46275714Y-79136666D01*
X46466190Y-79041428D01*
X46847142Y-78946190D01*
X47323333Y-78946190D01*
X47704285Y-79041428D01*
X47894761Y-79136666D01*
X47990000Y-79231904D01*
X48085238Y-79422380D01*
D10*
X91369047Y-75732142D02*
X91321428Y-75779761D01*
X91178571Y-75827380D01*
X91083333Y-75827380D01*
X90940476Y-75779761D01*
X90845238Y-75684523D01*
X90797619Y-75589285D01*
X90750000Y-75398809D01*
X90750000Y-75255952D01*
X90797619Y-75065476D01*
X90845238Y-74970238D01*
X90940476Y-74875000D01*
X91083333Y-74827380D01*
X91178571Y-74827380D01*
X91321428Y-74875000D01*
X91369047Y-74922619D01*
X91797619Y-75303571D02*
X92130952Y-75303571D01*
X92273809Y-75827380D02*
X91797619Y-75827380D01*
X91797619Y-74827380D01*
X92273809Y-74827380D01*
X92702380Y-75827380D02*
X92702380Y-74827380D01*
X93273809Y-75827380D01*
X93273809Y-74827380D01*
X93607142Y-74827380D02*
X94178571Y-74827380D01*
X93892857Y-75827380D02*
X93892857Y-74827380D01*
X94511904Y-75303571D02*
X94845238Y-75303571D01*
X94988095Y-75827380D02*
X94511904Y-75827380D01*
X94511904Y-74827380D01*
X94988095Y-74827380D01*
X95988095Y-75827380D02*
X95654761Y-75351190D01*
X95416666Y-75827380D02*
X95416666Y-74827380D01*
X95797619Y-74827380D01*
X95892857Y-74875000D01*
X95940476Y-74922619D01*
X95988095Y-75017857D01*
X95988095Y-75160714D01*
X95940476Y-75255952D01*
X95892857Y-75303571D01*
X95797619Y-75351190D01*
X95416666Y-75351190D01*
X97178571Y-75827380D02*
X97178571Y-74827380D01*
X97559523Y-74827380D01*
X97654761Y-74875000D01*
X97702380Y-74922619D01*
X97750000Y-75017857D01*
X97750000Y-75160714D01*
X97702380Y-75255952D01*
X97654761Y-75303571D01*
X97559523Y-75351190D01*
X97178571Y-75351190D01*
X98369047Y-74827380D02*
X98559523Y-74827380D01*
X98654761Y-74875000D01*
X98750000Y-74970238D01*
X98797619Y-75160714D01*
X98797619Y-75494047D01*
X98750000Y-75684523D01*
X98654761Y-75779761D01*
X98559523Y-75827380D01*
X98369047Y-75827380D01*
X98273809Y-75779761D01*
X98178571Y-75684523D01*
X98130952Y-75494047D01*
X98130952Y-75160714D01*
X98178571Y-74970238D01*
X98273809Y-74875000D01*
X98369047Y-74827380D01*
X99178571Y-75779761D02*
X99321428Y-75827380D01*
X99559523Y-75827380D01*
X99654761Y-75779761D01*
X99702380Y-75732142D01*
X99750000Y-75636904D01*
X99750000Y-75541666D01*
X99702380Y-75446428D01*
X99654761Y-75398809D01*
X99559523Y-75351190D01*
X99369047Y-75303571D01*
X99273809Y-75255952D01*
X99226190Y-75208333D01*
X99178571Y-75113095D01*
X99178571Y-75017857D01*
X99226190Y-74922619D01*
X99273809Y-74875000D01*
X99369047Y-74827380D01*
X99607142Y-74827380D01*
X99750000Y-74875000D01*
X93488095Y-77096428D02*
X94250000Y-77096428D01*
X93869047Y-77477380D02*
X93869047Y-76715476D01*
X95250000Y-77477380D02*
X94678571Y-77477380D01*
X94964285Y-77477380D02*
X94964285Y-76477380D01*
X94869047Y-76620238D01*
X94773809Y-76715476D01*
X94678571Y-76763095D01*
X95630952Y-76572619D02*
X95678571Y-76525000D01*
X95773809Y-76477380D01*
X96011904Y-76477380D01*
X96107142Y-76525000D01*
X96154761Y-76572619D01*
X96202380Y-76667857D01*
X96202380Y-76763095D01*
X96154761Y-76905952D01*
X95583333Y-77477380D01*
X96202380Y-77477380D01*
X96488095Y-76477380D02*
X96821428Y-77477380D01*
X97154761Y-76477380D01*
X64008095Y-156980000D02*
X63912857Y-156932380D01*
X63770000Y-156932380D01*
X63627142Y-156980000D01*
X63531904Y-157075238D01*
X63484285Y-157170476D01*
X63436666Y-157360952D01*
X63436666Y-157503809D01*
X63484285Y-157694285D01*
X63531904Y-157789523D01*
X63627142Y-157884761D01*
X63770000Y-157932380D01*
X63865238Y-157932380D01*
X64008095Y-157884761D01*
X64055714Y-157837142D01*
X64055714Y-157503809D01*
X63865238Y-157503809D01*
X64484285Y-157932380D02*
X64484285Y-156932380D01*
X65055714Y-157932380D01*
X65055714Y-156932380D01*
X65531904Y-157932380D02*
X65531904Y-156932380D01*
X65770000Y-156932380D01*
X65912857Y-156980000D01*
X66008095Y-157075238D01*
X66055714Y-157170476D01*
X66103333Y-157360952D01*
X66103333Y-157503809D01*
X66055714Y-157694285D01*
X66008095Y-157789523D01*
X65912857Y-157884761D01*
X65770000Y-157932380D01*
X65531904Y-157932380D01*
X63484285Y-155011428D02*
X64246190Y-155011428D01*
X63865238Y-155392380D02*
X63865238Y-154630476D01*
X65198571Y-154392380D02*
X64722380Y-154392380D01*
X64674761Y-154868571D01*
X64722380Y-154820952D01*
X64817619Y-154773333D01*
X65055714Y-154773333D01*
X65150952Y-154820952D01*
X65198571Y-154868571D01*
X65246190Y-154963809D01*
X65246190Y-155201904D01*
X65198571Y-155297142D01*
X65150952Y-155344761D01*
X65055714Y-155392380D01*
X64817619Y-155392380D01*
X64722380Y-155344761D01*
X64674761Y-155297142D01*
X65531904Y-154392380D02*
X65865238Y-155392380D01*
X66198571Y-154392380D01*
X63579523Y-152804761D02*
X63722380Y-152852380D01*
X63960476Y-152852380D01*
X64055714Y-152804761D01*
X64103333Y-152757142D01*
X64150952Y-152661904D01*
X64150952Y-152566666D01*
X64103333Y-152471428D01*
X64055714Y-152423809D01*
X63960476Y-152376190D01*
X63770000Y-152328571D01*
X63674761Y-152280952D01*
X63627142Y-152233333D01*
X63579523Y-152138095D01*
X63579523Y-152042857D01*
X63627142Y-151947619D01*
X63674761Y-151900000D01*
X63770000Y-151852380D01*
X64008095Y-151852380D01*
X64150952Y-151900000D01*
X65150952Y-152757142D02*
X65103333Y-152804761D01*
X64960476Y-152852380D01*
X64865238Y-152852380D01*
X64722380Y-152804761D01*
X64627142Y-152709523D01*
X64579523Y-152614285D01*
X64531904Y-152423809D01*
X64531904Y-152280952D01*
X64579523Y-152090476D01*
X64627142Y-151995238D01*
X64722380Y-151900000D01*
X64865238Y-151852380D01*
X64960476Y-151852380D01*
X65103333Y-151900000D01*
X65150952Y-151947619D01*
X66055714Y-152852380D02*
X65579523Y-152852380D01*
X65579523Y-151852380D01*
X63555714Y-150264761D02*
X63698571Y-150312380D01*
X63936666Y-150312380D01*
X64031904Y-150264761D01*
X64079523Y-150217142D01*
X64127142Y-150121904D01*
X64127142Y-150026666D01*
X64079523Y-149931428D01*
X64031904Y-149883809D01*
X63936666Y-149836190D01*
X63746190Y-149788571D01*
X63650952Y-149740952D01*
X63603333Y-149693333D01*
X63555714Y-149598095D01*
X63555714Y-149502857D01*
X63603333Y-149407619D01*
X63650952Y-149360000D01*
X63746190Y-149312380D01*
X63984285Y-149312380D01*
X64127142Y-149360000D01*
X64555714Y-150312380D02*
X64555714Y-149312380D01*
X64793809Y-149312380D01*
X64936666Y-149360000D01*
X65031904Y-149455238D01*
X65079523Y-149550476D01*
X65127142Y-149740952D01*
X65127142Y-149883809D01*
X65079523Y-150074285D01*
X65031904Y-150169523D01*
X64936666Y-150264761D01*
X64793809Y-150312380D01*
X64555714Y-150312380D01*
X65508095Y-150026666D02*
X65984285Y-150026666D01*
X65412857Y-150312380D02*
X65746190Y-149312380D01*
X66079523Y-150312380D01*
X65174761Y-166996666D02*
X65222380Y-166853809D01*
X65222380Y-166615714D01*
X65174761Y-166520476D01*
X65127142Y-166472857D01*
X65031904Y-166425238D01*
X64936666Y-166425238D01*
X64841428Y-166472857D01*
X64793809Y-166520476D01*
X64746190Y-166615714D01*
X64698571Y-166806190D01*
X64650952Y-166901428D01*
X64603333Y-166949047D01*
X64508095Y-166996666D01*
X64412857Y-166996666D01*
X64317619Y-166949047D01*
X64270000Y-166901428D01*
X64222380Y-166806190D01*
X64222380Y-166568095D01*
X64270000Y-166425238D01*
X65174761Y-166044285D02*
X65222380Y-165901428D01*
X65222380Y-165663333D01*
X65174761Y-165568095D01*
X65127142Y-165520476D01*
X65031904Y-165472857D01*
X64936666Y-165472857D01*
X64841428Y-165520476D01*
X64793809Y-165568095D01*
X64746190Y-165663333D01*
X64698571Y-165853809D01*
X64650952Y-165949047D01*
X64603333Y-165996666D01*
X64508095Y-166044285D01*
X64412857Y-166044285D01*
X64317619Y-165996666D01*
X64270000Y-165949047D01*
X64222380Y-165853809D01*
X64222380Y-165615714D01*
X64270000Y-165472857D01*
X65222380Y-165044285D02*
X64222380Y-165044285D01*
X64222380Y-164806190D01*
X64270000Y-164663333D01*
X64365238Y-164568095D01*
X64460476Y-164520476D01*
X64650952Y-164472857D01*
X64793809Y-164472857D01*
X64984285Y-164520476D01*
X65079523Y-164568095D01*
X65174761Y-164663333D01*
X65222380Y-164806190D01*
X65222380Y-165044285D01*
X65222380Y-163520476D02*
X65222380Y-164091904D01*
X65222380Y-163806190D02*
X64222380Y-163806190D01*
X64365238Y-163901428D01*
X64460476Y-163996666D01*
X64508095Y-164091904D01*
X64222380Y-163187142D02*
X64222380Y-162568095D01*
X64603333Y-162901428D01*
X64603333Y-162758571D01*
X64650952Y-162663333D01*
X64698571Y-162615714D01*
X64793809Y-162568095D01*
X65031904Y-162568095D01*
X65127142Y-162615714D01*
X65174761Y-162663333D01*
X65222380Y-162758571D01*
X65222380Y-163044285D01*
X65174761Y-163139523D01*
X65127142Y-163187142D01*
X64222380Y-161949047D02*
X64222380Y-161853809D01*
X64270000Y-161758571D01*
X64317619Y-161710952D01*
X64412857Y-161663333D01*
X64603333Y-161615714D01*
X64841428Y-161615714D01*
X65031904Y-161663333D01*
X65127142Y-161710952D01*
X65174761Y-161758571D01*
X65222380Y-161853809D01*
X65222380Y-161949047D01*
X65174761Y-162044285D01*
X65127142Y-162091904D01*
X65031904Y-162139523D01*
X64841428Y-162187142D01*
X64603333Y-162187142D01*
X64412857Y-162139523D01*
X64317619Y-162091904D01*
X64270000Y-162044285D01*
X64222380Y-161949047D01*
X64222380Y-160758571D02*
X64222380Y-160949047D01*
X64270000Y-161044285D01*
X64317619Y-161091904D01*
X64460476Y-161187142D01*
X64650952Y-161234761D01*
X65031904Y-161234761D01*
X65127142Y-161187142D01*
X65174761Y-161139523D01*
X65222380Y-161044285D01*
X65222380Y-160853809D01*
X65174761Y-160758571D01*
X65127142Y-160710952D01*
X65031904Y-160663333D01*
X64793809Y-160663333D01*
X64698571Y-160710952D01*
X64650952Y-160758571D01*
X64603333Y-160853809D01*
X64603333Y-161044285D01*
X64650952Y-161139523D01*
X64698571Y-161187142D01*
X64793809Y-161234761D01*
X67310000Y-139700000D02*
X62230000Y-139700000D01*
X67310000Y-168910000D02*
X67310000Y-139700000D01*
X62230000Y-168910000D02*
X67310000Y-168910000D01*
X62230000Y-139700000D02*
X62230000Y-168910000D01*
D11*
X69090000Y-91244267D02*
X69090000Y-90901733D01*
X68070000Y-91244267D02*
X68070000Y-90901733D01*
X68070000Y-96743733D02*
X68070000Y-97086267D01*
X69090000Y-96743733D02*
X69090000Y-97086267D01*
X95350000Y-142780000D02*
X95020000Y-142780000D01*
X95350000Y-149320000D02*
X95350000Y-142780000D01*
X95020000Y-149320000D02*
X95350000Y-149320000D01*
X92610000Y-142780000D02*
X92940000Y-142780000D01*
X92610000Y-149320000D02*
X92610000Y-142780000D01*
X92940000Y-149320000D02*
X92610000Y-149320000D01*
X95350000Y-111030000D02*
X95020000Y-111030000D01*
X95350000Y-117570000D02*
X95350000Y-111030000D01*
X95020000Y-117570000D02*
X95350000Y-117570000D01*
X92610000Y-111030000D02*
X92940000Y-111030000D01*
X92610000Y-117570000D02*
X92610000Y-111030000D01*
X92940000Y-117570000D02*
X92610000Y-117570000D01*
X95350000Y-78010000D02*
X95020000Y-78010000D01*
X95350000Y-84550000D02*
X95350000Y-78010000D01*
X95020000Y-84550000D02*
X95350000Y-84550000D01*
X92610000Y-78010000D02*
X92940000Y-78010000D01*
X92610000Y-84550000D02*
X92610000Y-78010000D01*
X92940000Y-84550000D02*
X92610000Y-84550000D01*
X55890000Y-178150000D02*
X56190000Y-178150000D01*
X56190000Y-177260000D02*
X55840000Y-177260000D01*
X56190000Y-177260000D02*
X56190000Y-178150000D01*
X53640000Y-176770000D02*
X53640000Y-171790000D01*
X49400000Y-178150000D02*
X53250000Y-178150000D01*
X49400000Y-170410000D02*
X49400000Y-178150000D01*
X53250000Y-170410000D02*
X49400000Y-170410000D01*
X55890000Y-170410000D02*
X56190000Y-170410000D01*
X56190000Y-170410000D02*
X56190000Y-171300000D01*
X56190000Y-171300000D02*
X55840000Y-171300000D01*
X55890000Y-119730000D02*
X56190000Y-119730000D01*
X56190000Y-118840000D02*
X55840000Y-118840000D01*
X56190000Y-118840000D02*
X56190000Y-119730000D01*
X53640000Y-118350000D02*
X53640000Y-113370000D01*
X49400000Y-119730000D02*
X53250000Y-119730000D01*
X49400000Y-111990000D02*
X49400000Y-119730000D01*
X53250000Y-111990000D02*
X49400000Y-111990000D01*
X55890000Y-111990000D02*
X56190000Y-111990000D01*
X56190000Y-111990000D02*
X56190000Y-112880000D01*
X56190000Y-112880000D02*
X55840000Y-112880000D01*
X55890000Y-164180000D02*
X56190000Y-164180000D01*
X56190000Y-163290000D02*
X55840000Y-163290000D01*
X56190000Y-163290000D02*
X56190000Y-164180000D01*
X53640000Y-162800000D02*
X53640000Y-157820000D01*
X49400000Y-164180000D02*
X53250000Y-164180000D01*
X49400000Y-156440000D02*
X49400000Y-164180000D01*
X53250000Y-156440000D02*
X49400000Y-156440000D01*
X55890000Y-156440000D02*
X56190000Y-156440000D01*
X56190000Y-156440000D02*
X56190000Y-157330000D01*
X56190000Y-157330000D02*
X55840000Y-157330000D01*
X55890000Y-150210000D02*
X56190000Y-150210000D01*
X56190000Y-149320000D02*
X55840000Y-149320000D01*
X56190000Y-149320000D02*
X56190000Y-150210000D01*
X53640000Y-148830000D02*
X53640000Y-143850000D01*
X49400000Y-150210000D02*
X53250000Y-150210000D01*
X49400000Y-142470000D02*
X49400000Y-150210000D01*
X53250000Y-142470000D02*
X49400000Y-142470000D01*
X55890000Y-142470000D02*
X56190000Y-142470000D01*
X56190000Y-142470000D02*
X56190000Y-143360000D01*
X56190000Y-143360000D02*
X55840000Y-143360000D01*
X55890000Y-86710000D02*
X56190000Y-86710000D01*
X56190000Y-85820000D02*
X55840000Y-85820000D01*
X56190000Y-85820000D02*
X56190000Y-86710000D01*
X53640000Y-85330000D02*
X53640000Y-80350000D01*
X49400000Y-86710000D02*
X53250000Y-86710000D01*
X49400000Y-78970000D02*
X49400000Y-86710000D01*
X53250000Y-78970000D02*
X49400000Y-78970000D01*
X55890000Y-78970000D02*
X56190000Y-78970000D01*
X56190000Y-78970000D02*
X56190000Y-79860000D01*
X56190000Y-79860000D02*
X55840000Y-79860000D01*
X74870000Y-116900000D02*
X74870000Y-115570000D01*
X76200000Y-116900000D02*
X74870000Y-116900000D01*
X77470000Y-116900000D02*
X77470000Y-114240000D01*
X77470000Y-114240000D02*
X85150000Y-114240000D01*
X77470000Y-116900000D02*
X85150000Y-116900000D01*
X85150000Y-116900000D02*
X85150000Y-114240000D01*
X58360000Y-129480000D02*
X59690000Y-129480000D01*
X58360000Y-130810000D02*
X58360000Y-129480000D01*
X58360000Y-132080000D02*
X61020000Y-132080000D01*
X61020000Y-132080000D02*
X61020000Y-134680000D01*
X58360000Y-132080000D02*
X58360000Y-134680000D01*
X58360000Y-134680000D02*
X61020000Y-134680000D01*
X58360000Y-99000000D02*
X59690000Y-99000000D01*
X58360000Y-100330000D02*
X58360000Y-99000000D01*
X58360000Y-101600000D02*
X61020000Y-101600000D01*
X61020000Y-101600000D02*
X61020000Y-104200000D01*
X58360000Y-101600000D02*
X58360000Y-104200000D01*
X58360000Y-104200000D02*
X61020000Y-104200000D01*
X58360000Y-65980000D02*
X59690000Y-65980000D01*
X58360000Y-67310000D02*
X58360000Y-65980000D01*
X58360000Y-68580000D02*
X61020000Y-68580000D01*
X61020000Y-68580000D02*
X61020000Y-71180000D01*
X58360000Y-68580000D02*
X58360000Y-71180000D01*
X58360000Y-71180000D02*
X61020000Y-71180000D01*
X99850000Y-73290000D02*
X97250000Y-73290000D01*
X99850000Y-63500000D02*
X99850000Y-73290000D01*
X90650000Y-73290000D02*
X90650000Y-71390000D01*
X93350000Y-73290000D02*
X90650000Y-73290000D01*
X90650000Y-67390000D02*
X90650000Y-63500000D01*
X100050000Y-72440000D02*
X100050000Y-73490000D01*
X99000000Y-73490000D02*
X100050000Y-73490000D01*
X99850000Y-63500000D02*
X90650000Y-63500000D01*
X69720000Y-101730000D02*
X87760000Y-101730000D01*
X85090000Y-60960000D02*
X87760000Y-60960000D01*
X85090000Y-96520000D02*
X85090000Y-60960000D01*
X85090000Y-96520000D02*
X87760000Y-96520000D01*
X72390000Y-60960000D02*
X69720000Y-60960000D01*
X72390000Y-99060000D02*
X72390000Y-60960000D01*
X72390000Y-99060000D02*
X69720000Y-99060000D01*
X87760000Y-101730000D02*
X87760000Y-99060000D01*
X85090000Y-99060000D02*
X87760000Y-99060000D01*
X85090000Y-96520000D02*
X85090000Y-99060000D01*
X69720000Y-101730000D02*
X69720000Y-60960000D01*
X87760000Y-96520000D02*
X87760000Y-60960000D01*
X46480000Y-135160000D02*
X46480000Y-128920000D01*
X46480000Y-135410000D02*
X46480000Y-128670000D01*
X47280000Y-135410000D02*
X47280000Y-128670000D01*
X47280000Y-128670000D02*
X46480000Y-128670000D01*
X47280000Y-135410000D02*
X46480000Y-135410000D01*
X47280000Y-137061000D02*
X47280000Y-127020000D01*
X54320000Y-134484000D02*
X54320000Y-129595000D01*
X51545000Y-127020000D02*
X47280000Y-127020000D01*
X51545000Y-137061000D02*
X47280000Y-137061000D01*
X46480000Y-104680000D02*
X46480000Y-98440000D01*
X46480000Y-104930000D02*
X46480000Y-98190000D01*
X47280000Y-104930000D02*
X47280000Y-98190000D01*
X47280000Y-98190000D02*
X46480000Y-98190000D01*
X47280000Y-104930000D02*
X46480000Y-104930000D01*
X47280000Y-106581000D02*
X47280000Y-96540000D01*
X54320000Y-104004000D02*
X54320000Y-99115000D01*
X51545000Y-96540000D02*
X47280000Y-96540000D01*
X51545000Y-106581000D02*
X47280000Y-106581000D01*
X46480000Y-71660000D02*
X46480000Y-65420000D01*
X46480000Y-71910000D02*
X46480000Y-65170000D01*
X47280000Y-71910000D02*
X47280000Y-65170000D01*
X47280000Y-65170000D02*
X46480000Y-65170000D01*
X47280000Y-71910000D02*
X46480000Y-71910000D01*
X47280000Y-73561000D02*
X47280000Y-63520000D01*
X54320000Y-70984000D02*
X54320000Y-66095000D01*
X51545000Y-63520000D02*
X47280000Y-63520000D01*
X51545000Y-73561000D02*
X47280000Y-73561000D01*
X99790000Y-172820000D02*
X99790000Y-172490000D01*
X93250000Y-172820000D02*
X99790000Y-172820000D01*
X93250000Y-172490000D02*
X93250000Y-172820000D01*
X99790000Y-170080000D02*
X99790000Y-170410000D01*
X93250000Y-170080000D02*
X99790000Y-170080000D01*
X93250000Y-170410000D02*
X93250000Y-170080000D01*
X97250000Y-137260000D02*
X97250000Y-136930000D01*
X90710000Y-137260000D02*
X97250000Y-137260000D01*
X90710000Y-136930000D02*
X90710000Y-137260000D01*
X97250000Y-134520000D02*
X97250000Y-134850000D01*
X90710000Y-134520000D02*
X97250000Y-134520000D01*
X90710000Y-134850000D02*
X90710000Y-134520000D01*
X99160000Y-98330000D02*
X98830000Y-98330000D01*
X99160000Y-104870000D02*
X99160000Y-98330000D01*
X98830000Y-104870000D02*
X99160000Y-104870000D01*
X96420000Y-98330000D02*
X96750000Y-98330000D01*
X96420000Y-104870000D02*
X96420000Y-98330000D01*
X96750000Y-104870000D02*
X96420000Y-104870000D01*
X73480000Y-178890000D02*
X73980000Y-178890000D01*
X73480000Y-178150000D02*
X73480000Y-178890000D01*
X80053000Y-175013000D02*
X80006000Y-175059000D01*
X82350000Y-172715000D02*
X82315000Y-172751000D01*
X80246000Y-175229000D02*
X80211000Y-175264000D01*
X82555000Y-172921000D02*
X82508000Y-172967000D01*
X83840000Y-168729000D02*
X83840000Y-178650000D01*
X73720000Y-168729000D02*
X73720000Y-178650000D01*
X73720000Y-178650000D02*
X83840000Y-178650000D01*
X73720000Y-168729000D02*
X83840000Y-168729000D01*
X73720000Y-171689000D02*
X83840000Y-171689000D01*
X73720000Y-176590000D02*
X83840000Y-176590000D01*
X73720000Y-178090000D02*
X83840000Y-178090000D01*
X82960000Y-173990000D02*
G75*
G03X82960000Y-173990000I-1680000J0D01*
G01*
X76308805Y-175670253D02*
G75*
G02X75596000Y-175525000I-28805J1680253D01*
G01*
X74744574Y-174673042D02*
G75*
G02X74745000Y-173306000I1535426J683042D01*
G01*
X75596958Y-172454574D02*
G75*
G02X76964000Y-172455000I683042J-1535426D01*
G01*
X77815426Y-173306958D02*
G75*
G02X77815000Y-174674000I-1535426J-683042D01*
G01*
X76963318Y-175524756D02*
G75*
G02X76280000Y-175670000I-683318J1534756D01*
G01*
X81280000Y-156330000D02*
X81280000Y-158870000D01*
X78740000Y-156330000D02*
X78740000Y-158870000D01*
X76200000Y-156330000D02*
X76200000Y-158870000D01*
X83860000Y-140440000D02*
X83860000Y-156330000D01*
X73620000Y-140440000D02*
X73620000Y-156330000D01*
X73620000Y-140440000D02*
X83860000Y-140440000D01*
X73620000Y-156330000D02*
X83860000Y-156330000D01*
X72290000Y-135350000D02*
X72620000Y-135350000D01*
X72290000Y-128810000D02*
X72290000Y-135350000D01*
X72620000Y-128810000D02*
X72290000Y-128810000D01*
X75030000Y-135350000D02*
X74700000Y-135350000D01*
X75030000Y-128810000D02*
X75030000Y-135350000D01*
X74700000Y-128810000D02*
X75030000Y-128810000D01*
X99790000Y-167740000D02*
X99790000Y-167410000D01*
X93250000Y-167740000D02*
X99790000Y-167740000D01*
X93250000Y-167410000D02*
X93250000Y-167740000D01*
X99790000Y-165000000D02*
X99790000Y-165330000D01*
X93250000Y-165000000D02*
X99790000Y-165000000D01*
X93250000Y-165330000D02*
X93250000Y-165000000D01*
X58320000Y-118840000D02*
X58650000Y-118840000D01*
X58320000Y-112300000D02*
X58320000Y-118840000D01*
X58650000Y-112300000D02*
X58320000Y-112300000D01*
X61060000Y-118840000D02*
X60730000Y-118840000D01*
X61060000Y-112300000D02*
X61060000Y-118840000D01*
X60730000Y-112300000D02*
X61060000Y-112300000D01*
X97250000Y-132180000D02*
X97250000Y-131850000D01*
X90710000Y-132180000D02*
X97250000Y-132180000D01*
X90710000Y-131850000D02*
X90710000Y-132180000D01*
X97250000Y-129440000D02*
X97250000Y-129770000D01*
X90710000Y-129440000D02*
X97250000Y-129440000D01*
X90710000Y-129770000D02*
X90710000Y-129440000D01*
X58320000Y-85820000D02*
X58650000Y-85820000D01*
X58320000Y-79280000D02*
X58320000Y-85820000D01*
X58650000Y-79280000D02*
X58320000Y-79280000D01*
X61060000Y-85820000D02*
X60730000Y-85820000D01*
X61060000Y-79280000D02*
X61060000Y-85820000D01*
X60730000Y-79280000D02*
X61060000Y-79280000D01*
X91340000Y-104870000D02*
X91670000Y-104870000D01*
X91340000Y-98330000D02*
X91340000Y-104870000D01*
X91670000Y-98330000D02*
X91340000Y-98330000D01*
X94080000Y-104870000D02*
X93750000Y-104870000D01*
X94080000Y-98330000D02*
X94080000Y-104870000D01*
X93750000Y-98330000D02*
X94080000Y-98330000D01*
X82450000Y-135350000D02*
X82780000Y-135350000D01*
X82450000Y-128810000D02*
X82450000Y-135350000D01*
X82780000Y-128810000D02*
X82450000Y-128810000D01*
X85190000Y-135350000D02*
X84860000Y-135350000D01*
X85190000Y-128810000D02*
X85190000Y-135350000D01*
X84860000Y-128810000D02*
X85190000Y-128810000D01*
X77370000Y-135350000D02*
X77700000Y-135350000D01*
X77370000Y-128810000D02*
X77370000Y-135350000D01*
X77700000Y-128810000D02*
X77370000Y-128810000D01*
X80110000Y-135350000D02*
X79780000Y-135350000D01*
X80110000Y-128810000D02*
X80110000Y-135350000D01*
X79780000Y-128810000D02*
X80110000Y-128810000D01*
X98358478Y-155641522D02*
G75*
G03X93920000Y-157480000I-1838478J-1838478D01*
G01*
X98358478Y-159318478D02*
G75*
G02X93920000Y-157480000I-1838478J1838478D01*
G01*
X98370000Y-159280000D02*
X98370000Y-155680000D01*
X98358478Y-123891522D02*
G75*
G03X93920000Y-125730000I-1838478J-1838478D01*
G01*
X98358478Y-127568478D02*
G75*
G02X93920000Y-125730000I-1838478J1838478D01*
G01*
X98370000Y-127530000D02*
X98370000Y-123930000D01*
X98358478Y-90871522D02*
G75*
G03X93920000Y-92710000I-1838478J-1838478D01*
G01*
X98358478Y-94548478D02*
G75*
G02X93920000Y-92710000I-1838478J1838478D01*
G01*
X98370000Y-94510000D02*
X98370000Y-90910000D01*
X100270000Y-154880000D02*
X101600000Y-154880000D01*
X100270000Y-156210000D02*
X100270000Y-154880000D01*
X100270000Y-157480000D02*
X102930000Y-157480000D01*
X102930000Y-157480000D02*
X102930000Y-162620000D01*
X100270000Y-157480000D02*
X100270000Y-162620000D01*
X100270000Y-162620000D02*
X102930000Y-162620000D01*
X107770000Y-151390000D02*
X107770000Y-150890000D01*
X107030000Y-151390000D02*
X107770000Y-151390000D01*
X103893000Y-144817000D02*
X103939000Y-144864000D01*
X101595000Y-142520000D02*
X101631000Y-142555000D01*
X104109000Y-144624000D02*
X104144000Y-144659000D01*
X101801000Y-142315000D02*
X101847000Y-142362000D01*
X97609000Y-141030000D02*
X107530000Y-141030000D01*
X97609000Y-151150000D02*
X107530000Y-151150000D01*
X107530000Y-151150000D02*
X107530000Y-141030000D01*
X97609000Y-151150000D02*
X97609000Y-141030000D01*
X100569000Y-151150000D02*
X100569000Y-141030000D01*
X105470000Y-151150000D02*
X105470000Y-141030000D01*
X106970000Y-151150000D02*
X106970000Y-141030000D01*
X104550000Y-143590000D02*
G75*
G03X104550000Y-143590000I-1680000J0D01*
G01*
X104550253Y-148561195D02*
G75*
G02X104405000Y-149274000I-1680253J-28805D01*
G01*
X103553042Y-150125426D02*
G75*
G02X102186000Y-150125000I-683042J1535426D01*
G01*
X101334574Y-149273042D02*
G75*
G02X101335000Y-147906000I1535426J683042D01*
G01*
X102186958Y-147054574D02*
G75*
G02X103554000Y-147055000I683042J-1535426D01*
G01*
X104404756Y-147906682D02*
G75*
G02X104550000Y-148590000I-1534756J-683318D01*
G01*
X100270000Y-123130000D02*
X101600000Y-123130000D01*
X100270000Y-124460000D02*
X100270000Y-123130000D01*
X100270000Y-125730000D02*
X102930000Y-125730000D01*
X102930000Y-125730000D02*
X102930000Y-130870000D01*
X100270000Y-125730000D02*
X100270000Y-130870000D01*
X100270000Y-130870000D02*
X102930000Y-130870000D01*
X107770000Y-119640000D02*
X107770000Y-119140000D01*
X107030000Y-119640000D02*
X107770000Y-119640000D01*
X103893000Y-113067000D02*
X103939000Y-113114000D01*
X101595000Y-110770000D02*
X101631000Y-110805000D01*
X104109000Y-112874000D02*
X104144000Y-112909000D01*
X101801000Y-110565000D02*
X101847000Y-110612000D01*
X97609000Y-109280000D02*
X107530000Y-109280000D01*
X97609000Y-119400000D02*
X107530000Y-119400000D01*
X107530000Y-119400000D02*
X107530000Y-109280000D01*
X97609000Y-119400000D02*
X97609000Y-109280000D01*
X100569000Y-119400000D02*
X100569000Y-109280000D01*
X105470000Y-119400000D02*
X105470000Y-109280000D01*
X106970000Y-119400000D02*
X106970000Y-109280000D01*
X104550000Y-111840000D02*
G75*
G03X104550000Y-111840000I-1680000J0D01*
G01*
X104550253Y-116811195D02*
G75*
G02X104405000Y-117524000I-1680253J-28805D01*
G01*
X103553042Y-118375426D02*
G75*
G02X102186000Y-118375000I-683042J1535426D01*
G01*
X101334574Y-117523042D02*
G75*
G02X101335000Y-116156000I1535426J683042D01*
G01*
X102186958Y-115304574D02*
G75*
G02X103554000Y-115305000I683042J-1535426D01*
G01*
X104404756Y-116156682D02*
G75*
G02X104550000Y-116840000I-1534756J-683318D01*
G01*
X100270000Y-90110000D02*
X101600000Y-90110000D01*
X100270000Y-91440000D02*
X100270000Y-90110000D01*
X100270000Y-92710000D02*
X102930000Y-92710000D01*
X102930000Y-92710000D02*
X102930000Y-97850000D01*
X100270000Y-92710000D02*
X100270000Y-97850000D01*
X100270000Y-97850000D02*
X102930000Y-97850000D01*
X107770000Y-86620000D02*
X107770000Y-86120000D01*
X107030000Y-86620000D02*
X107770000Y-86620000D01*
X103893000Y-80047000D02*
X103939000Y-80094000D01*
X101595000Y-77750000D02*
X101631000Y-77785000D01*
X104109000Y-79854000D02*
X104144000Y-79889000D01*
X101801000Y-77545000D02*
X101847000Y-77592000D01*
X97609000Y-76260000D02*
X107530000Y-76260000D01*
X97609000Y-86380000D02*
X107530000Y-86380000D01*
X107530000Y-86380000D02*
X107530000Y-76260000D01*
X97609000Y-86380000D02*
X97609000Y-76260000D01*
X100569000Y-86380000D02*
X100569000Y-76260000D01*
X105470000Y-86380000D02*
X105470000Y-76260000D01*
X106970000Y-86380000D02*
X106970000Y-76260000D01*
X104550000Y-78820000D02*
G75*
G03X104550000Y-78820000I-1680000J0D01*
G01*
X104550253Y-83791195D02*
G75*
G02X104405000Y-84504000I-1680253J-28805D01*
G01*
X103553042Y-85355426D02*
G75*
G02X102186000Y-85355000I-683042J1535426D01*
G01*
X101334574Y-84503042D02*
G75*
G02X101335000Y-83136000I1535426J683042D01*
G01*
X102186958Y-82284574D02*
G75*
G02X103554000Y-82285000I683042J-1535426D01*
G01*
X104404756Y-83136682D02*
G75*
G02X104550000Y-83820000I-1534756J-683318D01*
G01*
X68580000Y-148530000D02*
X69910000Y-148530000D01*
X69910000Y-148530000D02*
X69910000Y-149860000D01*
X69910000Y-151130000D02*
X69910000Y-158810000D01*
X67250000Y-158810000D02*
X69910000Y-158810000D01*
X67250000Y-151130000D02*
X67250000Y-158810000D01*
X67250000Y-151130000D02*
X69910000Y-151130000D01*
X86075225Y-160835000D02*
X86075225Y-161335000D01*
X85825225Y-161085000D02*
X86325225Y-161085000D01*
X91231000Y-162276000D02*
X91231000Y-162844000D01*
X91191000Y-162042000D02*
X91191000Y-163078000D01*
X91151000Y-161883000D02*
X91151000Y-163237000D01*
X91111000Y-161755000D02*
X91111000Y-163365000D01*
X91071000Y-161645000D02*
X91071000Y-163475000D01*
X91031000Y-161549000D02*
X91031000Y-163571000D01*
X90991000Y-161462000D02*
X90991000Y-163658000D01*
X90951000Y-161382000D02*
X90951000Y-163738000D01*
X90911000Y-161309000D02*
X90911000Y-163811000D01*
X90871000Y-161241000D02*
X90871000Y-163879000D01*
X90831000Y-161177000D02*
X90831000Y-163943000D01*
X90791000Y-161117000D02*
X90791000Y-164003000D01*
X90751000Y-161060000D02*
X90751000Y-164060000D01*
X90711000Y-161006000D02*
X90711000Y-164114000D01*
X90671000Y-160955000D02*
X90671000Y-164165000D01*
X90631000Y-163600000D02*
X90631000Y-164213000D01*
X90631000Y-160907000D02*
X90631000Y-161520000D01*
X90591000Y-163600000D02*
X90591000Y-164259000D01*
X90591000Y-160861000D02*
X90591000Y-161520000D01*
X90551000Y-163600000D02*
X90551000Y-164303000D01*
X90551000Y-160817000D02*
X90551000Y-161520000D01*
X90511000Y-163600000D02*
X90511000Y-164345000D01*
X90511000Y-160775000D02*
X90511000Y-161520000D01*
X90471000Y-163600000D02*
X90471000Y-164386000D01*
X90471000Y-160734000D02*
X90471000Y-161520000D01*
X90431000Y-163600000D02*
X90431000Y-164424000D01*
X90431000Y-160696000D02*
X90431000Y-161520000D01*
X90391000Y-163600000D02*
X90391000Y-164461000D01*
X90391000Y-160659000D02*
X90391000Y-161520000D01*
X90351000Y-163600000D02*
X90351000Y-164497000D01*
X90351000Y-160623000D02*
X90351000Y-161520000D01*
X90311000Y-163600000D02*
X90311000Y-164531000D01*
X90311000Y-160589000D02*
X90311000Y-161520000D01*
X90271000Y-163600000D02*
X90271000Y-164564000D01*
X90271000Y-160556000D02*
X90271000Y-161520000D01*
X90231000Y-163600000D02*
X90231000Y-164595000D01*
X90231000Y-160525000D02*
X90231000Y-161520000D01*
X90191000Y-163600000D02*
X90191000Y-164625000D01*
X90191000Y-160495000D02*
X90191000Y-161520000D01*
X90151000Y-163600000D02*
X90151000Y-164655000D01*
X90151000Y-160465000D02*
X90151000Y-161520000D01*
X90111000Y-163600000D02*
X90111000Y-164682000D01*
X90111000Y-160438000D02*
X90111000Y-161520000D01*
X90071000Y-163600000D02*
X90071000Y-164709000D01*
X90071000Y-160411000D02*
X90071000Y-161520000D01*
X90031000Y-163600000D02*
X90031000Y-164735000D01*
X90031000Y-160385000D02*
X90031000Y-161520000D01*
X89991000Y-163600000D02*
X89991000Y-164760000D01*
X89991000Y-160360000D02*
X89991000Y-161520000D01*
X89951000Y-163600000D02*
X89951000Y-164784000D01*
X89951000Y-160336000D02*
X89951000Y-161520000D01*
X89911000Y-163600000D02*
X89911000Y-164807000D01*
X89911000Y-160313000D02*
X89911000Y-161520000D01*
X89871000Y-163600000D02*
X89871000Y-164828000D01*
X89871000Y-160292000D02*
X89871000Y-161520000D01*
X89831000Y-163600000D02*
X89831000Y-164850000D01*
X89831000Y-160270000D02*
X89831000Y-161520000D01*
X89791000Y-163600000D02*
X89791000Y-164870000D01*
X89791000Y-160250000D02*
X89791000Y-161520000D01*
X89751000Y-163600000D02*
X89751000Y-164889000D01*
X89751000Y-160231000D02*
X89751000Y-161520000D01*
X89711000Y-163600000D02*
X89711000Y-164908000D01*
X89711000Y-160212000D02*
X89711000Y-161520000D01*
X89671000Y-163600000D02*
X89671000Y-164925000D01*
X89671000Y-160195000D02*
X89671000Y-161520000D01*
X89631000Y-163600000D02*
X89631000Y-164942000D01*
X89631000Y-160178000D02*
X89631000Y-161520000D01*
X89591000Y-163600000D02*
X89591000Y-164958000D01*
X89591000Y-160162000D02*
X89591000Y-161520000D01*
X89551000Y-163600000D02*
X89551000Y-164974000D01*
X89551000Y-160146000D02*
X89551000Y-161520000D01*
X89511000Y-163600000D02*
X89511000Y-164988000D01*
X89511000Y-160132000D02*
X89511000Y-161520000D01*
X89471000Y-163600000D02*
X89471000Y-165002000D01*
X89471000Y-160118000D02*
X89471000Y-161520000D01*
X89431000Y-163600000D02*
X89431000Y-165015000D01*
X89431000Y-160105000D02*
X89431000Y-161520000D01*
X89391000Y-163600000D02*
X89391000Y-165028000D01*
X89391000Y-160092000D02*
X89391000Y-161520000D01*
X89351000Y-163600000D02*
X89351000Y-165040000D01*
X89351000Y-160080000D02*
X89351000Y-161520000D01*
X89310000Y-163600000D02*
X89310000Y-165051000D01*
X89310000Y-160069000D02*
X89310000Y-161520000D01*
X89270000Y-163600000D02*
X89270000Y-165061000D01*
X89270000Y-160059000D02*
X89270000Y-161520000D01*
X89230000Y-163600000D02*
X89230000Y-165071000D01*
X89230000Y-160049000D02*
X89230000Y-161520000D01*
X89190000Y-163600000D02*
X89190000Y-165080000D01*
X89190000Y-160040000D02*
X89190000Y-161520000D01*
X89150000Y-163600000D02*
X89150000Y-165088000D01*
X89150000Y-160032000D02*
X89150000Y-161520000D01*
X89110000Y-163600000D02*
X89110000Y-165096000D01*
X89110000Y-160024000D02*
X89110000Y-161520000D01*
X89070000Y-163600000D02*
X89070000Y-165103000D01*
X89070000Y-160017000D02*
X89070000Y-161520000D01*
X89030000Y-163600000D02*
X89030000Y-165110000D01*
X89030000Y-160010000D02*
X89030000Y-161520000D01*
X88990000Y-163600000D02*
X88990000Y-165116000D01*
X88990000Y-160004000D02*
X88990000Y-161520000D01*
X88950000Y-163600000D02*
X88950000Y-165121000D01*
X88950000Y-159999000D02*
X88950000Y-161520000D01*
X88910000Y-163600000D02*
X88910000Y-165125000D01*
X88910000Y-159995000D02*
X88910000Y-161520000D01*
X88870000Y-163600000D02*
X88870000Y-165129000D01*
X88870000Y-159991000D02*
X88870000Y-161520000D01*
X88830000Y-163600000D02*
X88830000Y-165133000D01*
X88830000Y-159987000D02*
X88830000Y-161520000D01*
X88790000Y-163600000D02*
X88790000Y-165136000D01*
X88790000Y-159984000D02*
X88790000Y-161520000D01*
X88750000Y-163600000D02*
X88750000Y-165138000D01*
X88750000Y-159982000D02*
X88750000Y-161520000D01*
X88710000Y-163600000D02*
X88710000Y-165139000D01*
X88710000Y-159981000D02*
X88710000Y-161520000D01*
X88670000Y-159980000D02*
X88670000Y-161520000D01*
X88670000Y-163600000D02*
X88670000Y-165140000D01*
X88630000Y-159980000D02*
X88630000Y-161520000D01*
X88630000Y-163600000D02*
X88630000Y-165140000D01*
X91250000Y-162560000D02*
G75*
G03X91250000Y-162560000I-2620000J0D01*
G01*
X86075225Y-150675000D02*
X86075225Y-151175000D01*
X85825225Y-150925000D02*
X86325225Y-150925000D01*
X91231000Y-152116000D02*
X91231000Y-152684000D01*
X91191000Y-151882000D02*
X91191000Y-152918000D01*
X91151000Y-151723000D02*
X91151000Y-153077000D01*
X91111000Y-151595000D02*
X91111000Y-153205000D01*
X91071000Y-151485000D02*
X91071000Y-153315000D01*
X91031000Y-151389000D02*
X91031000Y-153411000D01*
X90991000Y-151302000D02*
X90991000Y-153498000D01*
X90951000Y-151222000D02*
X90951000Y-153578000D01*
X90911000Y-151149000D02*
X90911000Y-153651000D01*
X90871000Y-151081000D02*
X90871000Y-153719000D01*
X90831000Y-151017000D02*
X90831000Y-153783000D01*
X90791000Y-150957000D02*
X90791000Y-153843000D01*
X90751000Y-150900000D02*
X90751000Y-153900000D01*
X90711000Y-150846000D02*
X90711000Y-153954000D01*
X90671000Y-150795000D02*
X90671000Y-154005000D01*
X90631000Y-153440000D02*
X90631000Y-154053000D01*
X90631000Y-150747000D02*
X90631000Y-151360000D01*
X90591000Y-153440000D02*
X90591000Y-154099000D01*
X90591000Y-150701000D02*
X90591000Y-151360000D01*
X90551000Y-153440000D02*
X90551000Y-154143000D01*
X90551000Y-150657000D02*
X90551000Y-151360000D01*
X90511000Y-153440000D02*
X90511000Y-154185000D01*
X90511000Y-150615000D02*
X90511000Y-151360000D01*
X90471000Y-153440000D02*
X90471000Y-154226000D01*
X90471000Y-150574000D02*
X90471000Y-151360000D01*
X90431000Y-153440000D02*
X90431000Y-154264000D01*
X90431000Y-150536000D02*
X90431000Y-151360000D01*
X90391000Y-153440000D02*
X90391000Y-154301000D01*
X90391000Y-150499000D02*
X90391000Y-151360000D01*
X90351000Y-153440000D02*
X90351000Y-154337000D01*
X90351000Y-150463000D02*
X90351000Y-151360000D01*
X90311000Y-153440000D02*
X90311000Y-154371000D01*
X90311000Y-150429000D02*
X90311000Y-151360000D01*
X90271000Y-153440000D02*
X90271000Y-154404000D01*
X90271000Y-150396000D02*
X90271000Y-151360000D01*
X90231000Y-153440000D02*
X90231000Y-154435000D01*
X90231000Y-150365000D02*
X90231000Y-151360000D01*
X90191000Y-153440000D02*
X90191000Y-154465000D01*
X90191000Y-150335000D02*
X90191000Y-151360000D01*
X90151000Y-153440000D02*
X90151000Y-154495000D01*
X90151000Y-150305000D02*
X90151000Y-151360000D01*
X90111000Y-153440000D02*
X90111000Y-154522000D01*
X90111000Y-150278000D02*
X90111000Y-151360000D01*
X90071000Y-153440000D02*
X90071000Y-154549000D01*
X90071000Y-150251000D02*
X90071000Y-151360000D01*
X90031000Y-153440000D02*
X90031000Y-154575000D01*
X90031000Y-150225000D02*
X90031000Y-151360000D01*
X89991000Y-153440000D02*
X89991000Y-154600000D01*
X89991000Y-150200000D02*
X89991000Y-151360000D01*
X89951000Y-153440000D02*
X89951000Y-154624000D01*
X89951000Y-150176000D02*
X89951000Y-151360000D01*
X89911000Y-153440000D02*
X89911000Y-154647000D01*
X89911000Y-150153000D02*
X89911000Y-151360000D01*
X89871000Y-153440000D02*
X89871000Y-154668000D01*
X89871000Y-150132000D02*
X89871000Y-151360000D01*
X89831000Y-153440000D02*
X89831000Y-154690000D01*
X89831000Y-150110000D02*
X89831000Y-151360000D01*
X89791000Y-153440000D02*
X89791000Y-154710000D01*
X89791000Y-150090000D02*
X89791000Y-151360000D01*
X89751000Y-153440000D02*
X89751000Y-154729000D01*
X89751000Y-150071000D02*
X89751000Y-151360000D01*
X89711000Y-153440000D02*
X89711000Y-154748000D01*
X89711000Y-150052000D02*
X89711000Y-151360000D01*
X89671000Y-153440000D02*
X89671000Y-154765000D01*
X89671000Y-150035000D02*
X89671000Y-151360000D01*
X89631000Y-153440000D02*
X89631000Y-154782000D01*
X89631000Y-150018000D02*
X89631000Y-151360000D01*
X89591000Y-153440000D02*
X89591000Y-154798000D01*
X89591000Y-150002000D02*
X89591000Y-151360000D01*
X89551000Y-153440000D02*
X89551000Y-154814000D01*
X89551000Y-149986000D02*
X89551000Y-151360000D01*
X89511000Y-153440000D02*
X89511000Y-154828000D01*
X89511000Y-149972000D02*
X89511000Y-151360000D01*
X89471000Y-153440000D02*
X89471000Y-154842000D01*
X89471000Y-149958000D02*
X89471000Y-151360000D01*
X89431000Y-153440000D02*
X89431000Y-154855000D01*
X89431000Y-149945000D02*
X89431000Y-151360000D01*
X89391000Y-153440000D02*
X89391000Y-154868000D01*
X89391000Y-149932000D02*
X89391000Y-151360000D01*
X89351000Y-153440000D02*
X89351000Y-154880000D01*
X89351000Y-149920000D02*
X89351000Y-151360000D01*
X89310000Y-153440000D02*
X89310000Y-154891000D01*
X89310000Y-149909000D02*
X89310000Y-151360000D01*
X89270000Y-153440000D02*
X89270000Y-154901000D01*
X89270000Y-149899000D02*
X89270000Y-151360000D01*
X89230000Y-153440000D02*
X89230000Y-154911000D01*
X89230000Y-149889000D02*
X89230000Y-151360000D01*
X89190000Y-153440000D02*
X89190000Y-154920000D01*
X89190000Y-149880000D02*
X89190000Y-151360000D01*
X89150000Y-153440000D02*
X89150000Y-154928000D01*
X89150000Y-149872000D02*
X89150000Y-151360000D01*
X89110000Y-153440000D02*
X89110000Y-154936000D01*
X89110000Y-149864000D02*
X89110000Y-151360000D01*
X89070000Y-153440000D02*
X89070000Y-154943000D01*
X89070000Y-149857000D02*
X89070000Y-151360000D01*
X89030000Y-153440000D02*
X89030000Y-154950000D01*
X89030000Y-149850000D02*
X89030000Y-151360000D01*
X88990000Y-153440000D02*
X88990000Y-154956000D01*
X88990000Y-149844000D02*
X88990000Y-151360000D01*
X88950000Y-153440000D02*
X88950000Y-154961000D01*
X88950000Y-149839000D02*
X88950000Y-151360000D01*
X88910000Y-153440000D02*
X88910000Y-154965000D01*
X88910000Y-149835000D02*
X88910000Y-151360000D01*
X88870000Y-153440000D02*
X88870000Y-154969000D01*
X88870000Y-149831000D02*
X88870000Y-151360000D01*
X88830000Y-153440000D02*
X88830000Y-154973000D01*
X88830000Y-149827000D02*
X88830000Y-151360000D01*
X88790000Y-153440000D02*
X88790000Y-154976000D01*
X88790000Y-149824000D02*
X88790000Y-151360000D01*
X88750000Y-153440000D02*
X88750000Y-154978000D01*
X88750000Y-149822000D02*
X88750000Y-151360000D01*
X88710000Y-153440000D02*
X88710000Y-154979000D01*
X88710000Y-149821000D02*
X88710000Y-151360000D01*
X88670000Y-149820000D02*
X88670000Y-151360000D01*
X88670000Y-153440000D02*
X88670000Y-154980000D01*
X88630000Y-149820000D02*
X88630000Y-151360000D01*
X88630000Y-153440000D02*
X88630000Y-154980000D01*
X91250000Y-152400000D02*
G75*
G03X91250000Y-152400000I-2620000J0D01*
G01*
X86075225Y-140515000D02*
X86075225Y-141015000D01*
X85825225Y-140765000D02*
X86325225Y-140765000D01*
X91231000Y-141956000D02*
X91231000Y-142524000D01*
X91191000Y-141722000D02*
X91191000Y-142758000D01*
X91151000Y-141563000D02*
X91151000Y-142917000D01*
X91111000Y-141435000D02*
X91111000Y-143045000D01*
X91071000Y-141325000D02*
X91071000Y-143155000D01*
X91031000Y-141229000D02*
X91031000Y-143251000D01*
X90991000Y-141142000D02*
X90991000Y-143338000D01*
X90951000Y-141062000D02*
X90951000Y-143418000D01*
X90911000Y-140989000D02*
X90911000Y-143491000D01*
X90871000Y-140921000D02*
X90871000Y-143559000D01*
X90831000Y-140857000D02*
X90831000Y-143623000D01*
X90791000Y-140797000D02*
X90791000Y-143683000D01*
X90751000Y-140740000D02*
X90751000Y-143740000D01*
X90711000Y-140686000D02*
X90711000Y-143794000D01*
X90671000Y-140635000D02*
X90671000Y-143845000D01*
X90631000Y-143280000D02*
X90631000Y-143893000D01*
X90631000Y-140587000D02*
X90631000Y-141200000D01*
X90591000Y-143280000D02*
X90591000Y-143939000D01*
X90591000Y-140541000D02*
X90591000Y-141200000D01*
X90551000Y-143280000D02*
X90551000Y-143983000D01*
X90551000Y-140497000D02*
X90551000Y-141200000D01*
X90511000Y-143280000D02*
X90511000Y-144025000D01*
X90511000Y-140455000D02*
X90511000Y-141200000D01*
X90471000Y-143280000D02*
X90471000Y-144066000D01*
X90471000Y-140414000D02*
X90471000Y-141200000D01*
X90431000Y-143280000D02*
X90431000Y-144104000D01*
X90431000Y-140376000D02*
X90431000Y-141200000D01*
X90391000Y-143280000D02*
X90391000Y-144141000D01*
X90391000Y-140339000D02*
X90391000Y-141200000D01*
X90351000Y-143280000D02*
X90351000Y-144177000D01*
X90351000Y-140303000D02*
X90351000Y-141200000D01*
X90311000Y-143280000D02*
X90311000Y-144211000D01*
X90311000Y-140269000D02*
X90311000Y-141200000D01*
X90271000Y-143280000D02*
X90271000Y-144244000D01*
X90271000Y-140236000D02*
X90271000Y-141200000D01*
X90231000Y-143280000D02*
X90231000Y-144275000D01*
X90231000Y-140205000D02*
X90231000Y-141200000D01*
X90191000Y-143280000D02*
X90191000Y-144305000D01*
X90191000Y-140175000D02*
X90191000Y-141200000D01*
X90151000Y-143280000D02*
X90151000Y-144335000D01*
X90151000Y-140145000D02*
X90151000Y-141200000D01*
X90111000Y-143280000D02*
X90111000Y-144362000D01*
X90111000Y-140118000D02*
X90111000Y-141200000D01*
X90071000Y-143280000D02*
X90071000Y-144389000D01*
X90071000Y-140091000D02*
X90071000Y-141200000D01*
X90031000Y-143280000D02*
X90031000Y-144415000D01*
X90031000Y-140065000D02*
X90031000Y-141200000D01*
X89991000Y-143280000D02*
X89991000Y-144440000D01*
X89991000Y-140040000D02*
X89991000Y-141200000D01*
X89951000Y-143280000D02*
X89951000Y-144464000D01*
X89951000Y-140016000D02*
X89951000Y-141200000D01*
X89911000Y-143280000D02*
X89911000Y-144487000D01*
X89911000Y-139993000D02*
X89911000Y-141200000D01*
X89871000Y-143280000D02*
X89871000Y-144508000D01*
X89871000Y-139972000D02*
X89871000Y-141200000D01*
X89831000Y-143280000D02*
X89831000Y-144530000D01*
X89831000Y-139950000D02*
X89831000Y-141200000D01*
X89791000Y-143280000D02*
X89791000Y-144550000D01*
X89791000Y-139930000D02*
X89791000Y-141200000D01*
X89751000Y-143280000D02*
X89751000Y-144569000D01*
X89751000Y-139911000D02*
X89751000Y-141200000D01*
X89711000Y-143280000D02*
X89711000Y-144588000D01*
X89711000Y-139892000D02*
X89711000Y-141200000D01*
X89671000Y-143280000D02*
X89671000Y-144605000D01*
X89671000Y-139875000D02*
X89671000Y-141200000D01*
X89631000Y-143280000D02*
X89631000Y-144622000D01*
X89631000Y-139858000D02*
X89631000Y-141200000D01*
X89591000Y-143280000D02*
X89591000Y-144638000D01*
X89591000Y-139842000D02*
X89591000Y-141200000D01*
X89551000Y-143280000D02*
X89551000Y-144654000D01*
X89551000Y-139826000D02*
X89551000Y-141200000D01*
X89511000Y-143280000D02*
X89511000Y-144668000D01*
X89511000Y-139812000D02*
X89511000Y-141200000D01*
X89471000Y-143280000D02*
X89471000Y-144682000D01*
X89471000Y-139798000D02*
X89471000Y-141200000D01*
X89431000Y-143280000D02*
X89431000Y-144695000D01*
X89431000Y-139785000D02*
X89431000Y-141200000D01*
X89391000Y-143280000D02*
X89391000Y-144708000D01*
X89391000Y-139772000D02*
X89391000Y-141200000D01*
X89351000Y-143280000D02*
X89351000Y-144720000D01*
X89351000Y-139760000D02*
X89351000Y-141200000D01*
X89310000Y-143280000D02*
X89310000Y-144731000D01*
X89310000Y-139749000D02*
X89310000Y-141200000D01*
X89270000Y-143280000D02*
X89270000Y-144741000D01*
X89270000Y-139739000D02*
X89270000Y-141200000D01*
X89230000Y-143280000D02*
X89230000Y-144751000D01*
X89230000Y-139729000D02*
X89230000Y-141200000D01*
X89190000Y-143280000D02*
X89190000Y-144760000D01*
X89190000Y-139720000D02*
X89190000Y-141200000D01*
X89150000Y-143280000D02*
X89150000Y-144768000D01*
X89150000Y-139712000D02*
X89150000Y-141200000D01*
X89110000Y-143280000D02*
X89110000Y-144776000D01*
X89110000Y-139704000D02*
X89110000Y-141200000D01*
X89070000Y-143280000D02*
X89070000Y-144783000D01*
X89070000Y-139697000D02*
X89070000Y-141200000D01*
X89030000Y-143280000D02*
X89030000Y-144790000D01*
X89030000Y-139690000D02*
X89030000Y-141200000D01*
X88990000Y-143280000D02*
X88990000Y-144796000D01*
X88990000Y-139684000D02*
X88990000Y-141200000D01*
X88950000Y-143280000D02*
X88950000Y-144801000D01*
X88950000Y-139679000D02*
X88950000Y-141200000D01*
X88910000Y-143280000D02*
X88910000Y-144805000D01*
X88910000Y-139675000D02*
X88910000Y-141200000D01*
X88870000Y-143280000D02*
X88870000Y-144809000D01*
X88870000Y-139671000D02*
X88870000Y-141200000D01*
X88830000Y-143280000D02*
X88830000Y-144813000D01*
X88830000Y-139667000D02*
X88830000Y-141200000D01*
X88790000Y-143280000D02*
X88790000Y-144816000D01*
X88790000Y-139664000D02*
X88790000Y-141200000D01*
X88750000Y-143280000D02*
X88750000Y-144818000D01*
X88750000Y-139662000D02*
X88750000Y-141200000D01*
X88710000Y-143280000D02*
X88710000Y-144819000D01*
X88710000Y-139661000D02*
X88710000Y-141200000D01*
X88670000Y-139660000D02*
X88670000Y-141200000D01*
X88670000Y-143280000D02*
X88670000Y-144820000D01*
X88630000Y-139660000D02*
X88630000Y-141200000D01*
X88630000Y-143280000D02*
X88630000Y-144820000D01*
X91250000Y-142240000D02*
G75*
G03X91250000Y-142240000I-2620000J0D01*
G01*
D10*
X68032380Y-88582476D02*
X68032380Y-89058666D01*
X68508571Y-89106285D01*
X68460952Y-89058666D01*
X68413333Y-88963428D01*
X68413333Y-88725333D01*
X68460952Y-88630095D01*
X68508571Y-88582476D01*
X68603809Y-88534857D01*
X68841904Y-88534857D01*
X68937142Y-88582476D01*
X68984761Y-88630095D01*
X69032380Y-88725333D01*
X69032380Y-88963428D01*
X68984761Y-89058666D01*
X68937142Y-89106285D01*
X68032380Y-88249142D02*
X69032380Y-87915809D01*
X68032380Y-87582476D01*
X68032380Y-95075238D02*
X69032380Y-94741904D01*
X68032380Y-94408571D01*
X69032380Y-94075238D02*
X68032380Y-94075238D01*
X69032380Y-93599047D02*
X68032380Y-93599047D01*
X69032380Y-93027619D01*
X68032380Y-93027619D01*
X92062380Y-146692857D02*
X91586190Y-147026190D01*
X92062380Y-147264285D02*
X91062380Y-147264285D01*
X91062380Y-146883333D01*
X91110000Y-146788095D01*
X91157619Y-146740476D01*
X91252857Y-146692857D01*
X91395714Y-146692857D01*
X91490952Y-146740476D01*
X91538571Y-146788095D01*
X91586190Y-146883333D01*
X91586190Y-147264285D01*
X92062380Y-145740476D02*
X92062380Y-146311904D01*
X92062380Y-146026190D02*
X91062380Y-146026190D01*
X91205238Y-146121428D01*
X91300476Y-146216666D01*
X91348095Y-146311904D01*
X91395714Y-144883333D02*
X92062380Y-144883333D01*
X91014761Y-145121428D02*
X91729047Y-145359523D01*
X91729047Y-144740476D01*
X92062380Y-114942857D02*
X91586190Y-115276190D01*
X92062380Y-115514285D02*
X91062380Y-115514285D01*
X91062380Y-115133333D01*
X91110000Y-115038095D01*
X91157619Y-114990476D01*
X91252857Y-114942857D01*
X91395714Y-114942857D01*
X91490952Y-114990476D01*
X91538571Y-115038095D01*
X91586190Y-115133333D01*
X91586190Y-115514285D01*
X92062380Y-113990476D02*
X92062380Y-114561904D01*
X92062380Y-114276190D02*
X91062380Y-114276190D01*
X91205238Y-114371428D01*
X91300476Y-114466666D01*
X91348095Y-114561904D01*
X91062380Y-113657142D02*
X91062380Y-113038095D01*
X91443333Y-113371428D01*
X91443333Y-113228571D01*
X91490952Y-113133333D01*
X91538571Y-113085714D01*
X91633809Y-113038095D01*
X91871904Y-113038095D01*
X91967142Y-113085714D01*
X92014761Y-113133333D01*
X92062380Y-113228571D01*
X92062380Y-113514285D01*
X92014761Y-113609523D01*
X91967142Y-113657142D01*
X92062380Y-81922857D02*
X91586190Y-82256190D01*
X92062380Y-82494285D02*
X91062380Y-82494285D01*
X91062380Y-82113333D01*
X91110000Y-82018095D01*
X91157619Y-81970476D01*
X91252857Y-81922857D01*
X91395714Y-81922857D01*
X91490952Y-81970476D01*
X91538571Y-82018095D01*
X91586190Y-82113333D01*
X91586190Y-82494285D01*
X92062380Y-80970476D02*
X92062380Y-81541904D01*
X92062380Y-81256190D02*
X91062380Y-81256190D01*
X91205238Y-81351428D01*
X91300476Y-81446666D01*
X91348095Y-81541904D01*
X91157619Y-80589523D02*
X91110000Y-80541904D01*
X91062380Y-80446666D01*
X91062380Y-80208571D01*
X91110000Y-80113333D01*
X91157619Y-80065714D01*
X91252857Y-80018095D01*
X91348095Y-80018095D01*
X91490952Y-80065714D01*
X92062380Y-80637142D01*
X92062380Y-80018095D01*
X54974761Y-175613333D02*
X55022380Y-175470476D01*
X55022380Y-175232380D01*
X54974761Y-175137142D01*
X54927142Y-175089523D01*
X54831904Y-175041904D01*
X54736666Y-175041904D01*
X54641428Y-175089523D01*
X54593809Y-175137142D01*
X54546190Y-175232380D01*
X54498571Y-175422857D01*
X54450952Y-175518095D01*
X54403333Y-175565714D01*
X54308095Y-175613333D01*
X54212857Y-175613333D01*
X54117619Y-175565714D01*
X54070000Y-175518095D01*
X54022380Y-175422857D01*
X54022380Y-175184761D01*
X54070000Y-175041904D01*
X54022380Y-174708571D02*
X55022380Y-174470476D01*
X54308095Y-174280000D01*
X55022380Y-174089523D01*
X54022380Y-173851428D01*
X54117619Y-173518095D02*
X54070000Y-173470476D01*
X54022380Y-173375238D01*
X54022380Y-173137142D01*
X54070000Y-173041904D01*
X54117619Y-172994285D01*
X54212857Y-172946666D01*
X54308095Y-172946666D01*
X54450952Y-172994285D01*
X55022380Y-173565714D01*
X55022380Y-172946666D01*
X54974761Y-117193333D02*
X55022380Y-117050476D01*
X55022380Y-116812380D01*
X54974761Y-116717142D01*
X54927142Y-116669523D01*
X54831904Y-116621904D01*
X54736666Y-116621904D01*
X54641428Y-116669523D01*
X54593809Y-116717142D01*
X54546190Y-116812380D01*
X54498571Y-117002857D01*
X54450952Y-117098095D01*
X54403333Y-117145714D01*
X54308095Y-117193333D01*
X54212857Y-117193333D01*
X54117619Y-117145714D01*
X54070000Y-117098095D01*
X54022380Y-117002857D01*
X54022380Y-116764761D01*
X54070000Y-116621904D01*
X54022380Y-116288571D02*
X55022380Y-116050476D01*
X54308095Y-115860000D01*
X55022380Y-115669523D01*
X54022380Y-115431428D01*
X54355714Y-114621904D02*
X55022380Y-114621904D01*
X53974761Y-114860000D02*
X54689047Y-115098095D01*
X54689047Y-114479047D01*
X54974761Y-161643333D02*
X55022380Y-161500476D01*
X55022380Y-161262380D01*
X54974761Y-161167142D01*
X54927142Y-161119523D01*
X54831904Y-161071904D01*
X54736666Y-161071904D01*
X54641428Y-161119523D01*
X54593809Y-161167142D01*
X54546190Y-161262380D01*
X54498571Y-161452857D01*
X54450952Y-161548095D01*
X54403333Y-161595714D01*
X54308095Y-161643333D01*
X54212857Y-161643333D01*
X54117619Y-161595714D01*
X54070000Y-161548095D01*
X54022380Y-161452857D01*
X54022380Y-161214761D01*
X54070000Y-161071904D01*
X54022380Y-160738571D02*
X55022380Y-160500476D01*
X54308095Y-160310000D01*
X55022380Y-160119523D01*
X54022380Y-159881428D01*
X55022380Y-158976666D02*
X55022380Y-159548095D01*
X55022380Y-159262380D02*
X54022380Y-159262380D01*
X54165238Y-159357619D01*
X54260476Y-159452857D01*
X54308095Y-159548095D01*
X54974761Y-147673333D02*
X55022380Y-147530476D01*
X55022380Y-147292380D01*
X54974761Y-147197142D01*
X54927142Y-147149523D01*
X54831904Y-147101904D01*
X54736666Y-147101904D01*
X54641428Y-147149523D01*
X54593809Y-147197142D01*
X54546190Y-147292380D01*
X54498571Y-147482857D01*
X54450952Y-147578095D01*
X54403333Y-147625714D01*
X54308095Y-147673333D01*
X54212857Y-147673333D01*
X54117619Y-147625714D01*
X54070000Y-147578095D01*
X54022380Y-147482857D01*
X54022380Y-147244761D01*
X54070000Y-147101904D01*
X54022380Y-146768571D02*
X55022380Y-146530476D01*
X54308095Y-146340000D01*
X55022380Y-146149523D01*
X54022380Y-145911428D01*
X54022380Y-145054285D02*
X54022380Y-145530476D01*
X54498571Y-145578095D01*
X54450952Y-145530476D01*
X54403333Y-145435238D01*
X54403333Y-145197142D01*
X54450952Y-145101904D01*
X54498571Y-145054285D01*
X54593809Y-145006666D01*
X54831904Y-145006666D01*
X54927142Y-145054285D01*
X54974761Y-145101904D01*
X55022380Y-145197142D01*
X55022380Y-145435238D01*
X54974761Y-145530476D01*
X54927142Y-145578095D01*
X54974761Y-84173333D02*
X55022380Y-84030476D01*
X55022380Y-83792380D01*
X54974761Y-83697142D01*
X54927142Y-83649523D01*
X54831904Y-83601904D01*
X54736666Y-83601904D01*
X54641428Y-83649523D01*
X54593809Y-83697142D01*
X54546190Y-83792380D01*
X54498571Y-83982857D01*
X54450952Y-84078095D01*
X54403333Y-84125714D01*
X54308095Y-84173333D01*
X54212857Y-84173333D01*
X54117619Y-84125714D01*
X54070000Y-84078095D01*
X54022380Y-83982857D01*
X54022380Y-83744761D01*
X54070000Y-83601904D01*
X54022380Y-83268571D02*
X55022380Y-83030476D01*
X54308095Y-82840000D01*
X55022380Y-82649523D01*
X54022380Y-82411428D01*
X54022380Y-82125714D02*
X54022380Y-81506666D01*
X54403333Y-81840000D01*
X54403333Y-81697142D01*
X54450952Y-81601904D01*
X54498571Y-81554285D01*
X54593809Y-81506666D01*
X54831904Y-81506666D01*
X54927142Y-81554285D01*
X54974761Y-81601904D01*
X55022380Y-81697142D01*
X55022380Y-81982857D01*
X54974761Y-82078095D01*
X54927142Y-82125714D01*
X73322380Y-115903333D02*
X74036666Y-115903333D01*
X74179523Y-115950952D01*
X74274761Y-116046190D01*
X74322380Y-116189047D01*
X74322380Y-116284285D01*
X73322380Y-115522380D02*
X73322380Y-114903333D01*
X73703333Y-115236666D01*
X73703333Y-115093809D01*
X73750952Y-114998571D01*
X73798571Y-114950952D01*
X73893809Y-114903333D01*
X74131904Y-114903333D01*
X74227142Y-114950952D01*
X74274761Y-114998571D01*
X74322380Y-115093809D01*
X74322380Y-115379523D01*
X74274761Y-115474761D01*
X74227142Y-115522380D01*
X58951904Y-128932380D02*
X58951904Y-127932380D01*
X59190000Y-127932380D01*
X59332857Y-127980000D01*
X59428095Y-128075238D01*
X59475714Y-128170476D01*
X59523333Y-128360952D01*
X59523333Y-128503809D01*
X59475714Y-128694285D01*
X59428095Y-128789523D01*
X59332857Y-128884761D01*
X59190000Y-128932380D01*
X58951904Y-128932380D01*
X59856666Y-127932380D02*
X60475714Y-127932380D01*
X60142380Y-128313333D01*
X60285238Y-128313333D01*
X60380476Y-128360952D01*
X60428095Y-128408571D01*
X60475714Y-128503809D01*
X60475714Y-128741904D01*
X60428095Y-128837142D01*
X60380476Y-128884761D01*
X60285238Y-128932380D01*
X59999523Y-128932380D01*
X59904285Y-128884761D01*
X59856666Y-128837142D01*
X58951904Y-98452380D02*
X58951904Y-97452380D01*
X59190000Y-97452380D01*
X59332857Y-97500000D01*
X59428095Y-97595238D01*
X59475714Y-97690476D01*
X59523333Y-97880952D01*
X59523333Y-98023809D01*
X59475714Y-98214285D01*
X59428095Y-98309523D01*
X59332857Y-98404761D01*
X59190000Y-98452380D01*
X58951904Y-98452380D01*
X59904285Y-97547619D02*
X59951904Y-97500000D01*
X60047142Y-97452380D01*
X60285238Y-97452380D01*
X60380476Y-97500000D01*
X60428095Y-97547619D01*
X60475714Y-97642857D01*
X60475714Y-97738095D01*
X60428095Y-97880952D01*
X59856666Y-98452380D01*
X60475714Y-98452380D01*
X58951904Y-65432380D02*
X58951904Y-64432380D01*
X59190000Y-64432380D01*
X59332857Y-64480000D01*
X59428095Y-64575238D01*
X59475714Y-64670476D01*
X59523333Y-64860952D01*
X59523333Y-65003809D01*
X59475714Y-65194285D01*
X59428095Y-65289523D01*
X59332857Y-65384761D01*
X59190000Y-65432380D01*
X58951904Y-65432380D01*
X60475714Y-65432380D02*
X59904285Y-65432380D01*
X60190000Y-65432380D02*
X60190000Y-64432380D01*
X60094761Y-64575238D01*
X59999523Y-64670476D01*
X59904285Y-64718095D01*
X88952380Y-72723333D02*
X89666666Y-72723333D01*
X89809523Y-72770952D01*
X89904761Y-72866190D01*
X89952380Y-73009047D01*
X89952380Y-73104285D01*
X89952380Y-71723333D02*
X89952380Y-72294761D01*
X89952380Y-72009047D02*
X88952380Y-72009047D01*
X89095238Y-72104285D01*
X89190476Y-72199523D01*
X89238095Y-72294761D01*
X78025714Y-103036666D02*
X78501904Y-103036666D01*
X77930476Y-103322380D02*
X78263809Y-102322380D01*
X78597142Y-103322380D01*
X79454285Y-103322380D02*
X78882857Y-103322380D01*
X79168571Y-103322380D02*
X79168571Y-102322380D01*
X79073333Y-102465238D01*
X78978095Y-102560476D01*
X78882857Y-102608095D01*
D13*
X78990000Y-88847142D02*
X78990000Y-88132857D01*
X79418571Y-88990000D02*
X77918571Y-88490000D01*
X79418571Y-87990000D01*
X79418571Y-87490000D02*
X78418571Y-87490000D01*
X78704285Y-87490000D02*
X78561428Y-87418571D01*
X78490000Y-87347142D01*
X78418571Y-87204285D01*
X78418571Y-87061428D01*
X79418571Y-85918571D02*
X77918571Y-85918571D01*
X79347142Y-85918571D02*
X79418571Y-86061428D01*
X79418571Y-86347142D01*
X79347142Y-86490000D01*
X79275714Y-86561428D01*
X79132857Y-86632857D01*
X78704285Y-86632857D01*
X78561428Y-86561428D01*
X78490000Y-86490000D01*
X78418571Y-86347142D01*
X78418571Y-86061428D01*
X78490000Y-85918571D01*
X78418571Y-84561428D02*
X79418571Y-84561428D01*
X78418571Y-85204285D02*
X79204285Y-85204285D01*
X79347142Y-85132857D01*
X79418571Y-84990000D01*
X79418571Y-84775714D01*
X79347142Y-84632857D01*
X79275714Y-84561428D01*
X79418571Y-83847142D02*
X78418571Y-83847142D01*
X77918571Y-83847142D02*
X77990000Y-83918571D01*
X78061428Y-83847142D01*
X77990000Y-83775714D01*
X77918571Y-83847142D01*
X78061428Y-83847142D01*
X78418571Y-83132857D02*
X79418571Y-83132857D01*
X78561428Y-83132857D02*
X78490000Y-83061428D01*
X78418571Y-82918571D01*
X78418571Y-82704285D01*
X78490000Y-82561428D01*
X78632857Y-82490000D01*
X79418571Y-82490000D01*
X79418571Y-81561428D02*
X79347142Y-81704285D01*
X79275714Y-81775714D01*
X79132857Y-81847142D01*
X78704285Y-81847142D01*
X78561428Y-81775714D01*
X78490000Y-81704285D01*
X78418571Y-81561428D01*
X78418571Y-81347142D01*
X78490000Y-81204285D01*
X78561428Y-81132857D01*
X78704285Y-81061428D01*
X79132857Y-81061428D01*
X79275714Y-81132857D01*
X79347142Y-81204285D01*
X79418571Y-81347142D01*
X79418571Y-81561428D01*
X79561428Y-80775714D02*
X79561428Y-79632857D01*
X79418571Y-79275714D02*
X77918571Y-79275714D01*
X79418571Y-78418571D01*
X77918571Y-78418571D01*
X79418571Y-77061428D02*
X78632857Y-77061428D01*
X78490000Y-77132857D01*
X78418571Y-77275714D01*
X78418571Y-77561428D01*
X78490000Y-77704285D01*
X79347142Y-77061428D02*
X79418571Y-77204285D01*
X79418571Y-77561428D01*
X79347142Y-77704285D01*
X79204285Y-77775714D01*
X79061428Y-77775714D01*
X78918571Y-77704285D01*
X78847142Y-77561428D01*
X78847142Y-77204285D01*
X78775714Y-77061428D01*
X78418571Y-76347142D02*
X79418571Y-76347142D01*
X78561428Y-76347142D02*
X78490000Y-76275714D01*
X78418571Y-76132857D01*
X78418571Y-75918571D01*
X78490000Y-75775714D01*
X78632857Y-75704285D01*
X79418571Y-75704285D01*
X79418571Y-74775714D02*
X79347142Y-74918571D01*
X79275714Y-74990000D01*
X79132857Y-75061428D01*
X78704285Y-75061428D01*
X78561428Y-74990000D01*
X78490000Y-74918571D01*
X78418571Y-74775714D01*
X78418571Y-74561428D01*
X78490000Y-74418571D01*
X78561428Y-74347142D01*
X78704285Y-74275714D01*
X79132857Y-74275714D01*
X79275714Y-74347142D01*
X79347142Y-74418571D01*
X79418571Y-74561428D01*
X79418571Y-74775714D01*
X79561428Y-73990000D02*
X79561428Y-72847142D01*
X78418571Y-72632857D02*
X79418571Y-72275714D01*
X78418571Y-71918571D01*
X77918571Y-71490000D02*
X77918571Y-70561428D01*
X78490000Y-71061428D01*
X78490000Y-70847142D01*
X78561428Y-70704285D01*
X78632857Y-70632857D01*
X78775714Y-70561428D01*
X79132857Y-70561428D01*
X79275714Y-70632857D01*
X79347142Y-70704285D01*
X79418571Y-70847142D01*
X79418571Y-71275714D01*
X79347142Y-71418571D01*
X79275714Y-71490000D01*
X79275714Y-69918571D02*
X79347142Y-69847142D01*
X79418571Y-69918571D01*
X79347142Y-69990000D01*
X79275714Y-69918571D01*
X79418571Y-69918571D01*
X79418571Y-69347142D02*
X78418571Y-68561428D01*
X78418571Y-69347142D02*
X79418571Y-68561428D01*
D10*
X50204761Y-141042380D02*
X49871428Y-140566190D01*
X49633333Y-141042380D02*
X49633333Y-140042380D01*
X50014285Y-140042380D01*
X50109523Y-140090000D01*
X50157142Y-140137619D01*
X50204761Y-140232857D01*
X50204761Y-140375714D01*
X50157142Y-140470952D01*
X50109523Y-140518571D01*
X50014285Y-140566190D01*
X49633333Y-140566190D01*
X50490476Y-140042380D02*
X50823809Y-141042380D01*
X51157142Y-140042380D01*
X51395238Y-140042380D02*
X52014285Y-140042380D01*
X51680952Y-140423333D01*
X51823809Y-140423333D01*
X51919047Y-140470952D01*
X51966666Y-140518571D01*
X52014285Y-140613809D01*
X52014285Y-140851904D01*
X51966666Y-140947142D01*
X51919047Y-140994761D01*
X51823809Y-141042380D01*
X51538095Y-141042380D01*
X51442857Y-140994761D01*
X51395238Y-140947142D01*
X50204761Y-110562380D02*
X49871428Y-110086190D01*
X49633333Y-110562380D02*
X49633333Y-109562380D01*
X50014285Y-109562380D01*
X50109523Y-109610000D01*
X50157142Y-109657619D01*
X50204761Y-109752857D01*
X50204761Y-109895714D01*
X50157142Y-109990952D01*
X50109523Y-110038571D01*
X50014285Y-110086190D01*
X49633333Y-110086190D01*
X50490476Y-109562380D02*
X50823809Y-110562380D01*
X51157142Y-109562380D01*
X51442857Y-109657619D02*
X51490476Y-109610000D01*
X51585714Y-109562380D01*
X51823809Y-109562380D01*
X51919047Y-109610000D01*
X51966666Y-109657619D01*
X52014285Y-109752857D01*
X52014285Y-109848095D01*
X51966666Y-109990952D01*
X51395238Y-110562380D01*
X52014285Y-110562380D01*
X50204761Y-77542380D02*
X49871428Y-77066190D01*
X49633333Y-77542380D02*
X49633333Y-76542380D01*
X50014285Y-76542380D01*
X50109523Y-76590000D01*
X50157142Y-76637619D01*
X50204761Y-76732857D01*
X50204761Y-76875714D01*
X50157142Y-76970952D01*
X50109523Y-77018571D01*
X50014285Y-77066190D01*
X49633333Y-77066190D01*
X50490476Y-76542380D02*
X50823809Y-77542380D01*
X51157142Y-76542380D01*
X52014285Y-77542380D02*
X51442857Y-77542380D01*
X51728571Y-77542380D02*
X51728571Y-76542380D01*
X51633333Y-76685238D01*
X51538095Y-76780476D01*
X51442857Y-76828095D01*
X95877142Y-169532380D02*
X95543809Y-169056190D01*
X95305714Y-169532380D02*
X95305714Y-168532380D01*
X95686666Y-168532380D01*
X95781904Y-168580000D01*
X95829523Y-168627619D01*
X95877142Y-168722857D01*
X95877142Y-168865714D01*
X95829523Y-168960952D01*
X95781904Y-169008571D01*
X95686666Y-169056190D01*
X95305714Y-169056190D01*
X96829523Y-169532380D02*
X96258095Y-169532380D01*
X96543809Y-169532380D02*
X96543809Y-168532380D01*
X96448571Y-168675238D01*
X96353333Y-168770476D01*
X96258095Y-168818095D01*
X97448571Y-168532380D02*
X97543809Y-168532380D01*
X97639047Y-168580000D01*
X97686666Y-168627619D01*
X97734285Y-168722857D01*
X97781904Y-168913333D01*
X97781904Y-169151428D01*
X97734285Y-169341904D01*
X97686666Y-169437142D01*
X97639047Y-169484761D01*
X97543809Y-169532380D01*
X97448571Y-169532380D01*
X97353333Y-169484761D01*
X97305714Y-169437142D01*
X97258095Y-169341904D01*
X97210476Y-169151428D01*
X97210476Y-168913333D01*
X97258095Y-168722857D01*
X97305714Y-168627619D01*
X97353333Y-168580000D01*
X97448571Y-168532380D01*
X93813333Y-133972380D02*
X93480000Y-133496190D01*
X93241904Y-133972380D02*
X93241904Y-132972380D01*
X93622857Y-132972380D01*
X93718095Y-133020000D01*
X93765714Y-133067619D01*
X93813333Y-133162857D01*
X93813333Y-133305714D01*
X93765714Y-133400952D01*
X93718095Y-133448571D01*
X93622857Y-133496190D01*
X93241904Y-133496190D01*
X94146666Y-132972380D02*
X94813333Y-132972380D01*
X94384761Y-133972380D01*
X95872380Y-101766666D02*
X95396190Y-102100000D01*
X95872380Y-102338095D02*
X94872380Y-102338095D01*
X94872380Y-101957142D01*
X94920000Y-101861904D01*
X94967619Y-101814285D01*
X95062857Y-101766666D01*
X95205714Y-101766666D01*
X95300952Y-101814285D01*
X95348571Y-101861904D01*
X95396190Y-101957142D01*
X95396190Y-102338095D01*
X95205714Y-100909523D02*
X95872380Y-100909523D01*
X94824761Y-101147619D02*
X95539047Y-101385714D01*
X95539047Y-100766666D01*
X79676666Y-167182380D02*
X79676666Y-167896666D01*
X79629047Y-168039523D01*
X79533809Y-168134761D01*
X79390952Y-168182380D01*
X79295714Y-168182380D01*
X80105238Y-167277619D02*
X80152857Y-167230000D01*
X80248095Y-167182380D01*
X80486190Y-167182380D01*
X80581428Y-167230000D01*
X80629047Y-167277619D01*
X80676666Y-167372857D01*
X80676666Y-167468095D01*
X80629047Y-167610952D01*
X80057619Y-168182380D01*
X80676666Y-168182380D01*
X100838095Y-179252380D02*
X100838095Y-178252380D01*
X100838095Y-178728571D02*
X101409523Y-178728571D01*
X101409523Y-179252380D02*
X101409523Y-178252380D01*
X102314285Y-178585714D02*
X102314285Y-179252380D01*
X102076190Y-178204761D02*
X101838095Y-178919047D01*
X102457142Y-178919047D01*
X101438095Y-67052380D02*
X101438095Y-66052380D01*
X101438095Y-66528571D02*
X102009523Y-66528571D01*
X102009523Y-67052380D02*
X102009523Y-66052380D01*
X102390476Y-66052380D02*
X103009523Y-66052380D01*
X102676190Y-66433333D01*
X102819047Y-66433333D01*
X102914285Y-66480952D01*
X102961904Y-66528571D01*
X103009523Y-66623809D01*
X103009523Y-66861904D01*
X102961904Y-66957142D01*
X102914285Y-67004761D01*
X102819047Y-67052380D01*
X102533333Y-67052380D01*
X102438095Y-67004761D01*
X102390476Y-66957142D01*
X68238095Y-179052380D02*
X68238095Y-178052380D01*
X68238095Y-178528571D02*
X68809523Y-178528571D01*
X68809523Y-179052380D02*
X68809523Y-178052380D01*
X69238095Y-178147619D02*
X69285714Y-178100000D01*
X69380952Y-178052380D01*
X69619047Y-178052380D01*
X69714285Y-178100000D01*
X69761904Y-178147619D01*
X69809523Y-178242857D01*
X69809523Y-178338095D01*
X69761904Y-178480952D01*
X69190476Y-179052380D01*
X69809523Y-179052380D01*
X67038095Y-67052380D02*
X67038095Y-66052380D01*
X67038095Y-66528571D02*
X67609523Y-66528571D01*
X67609523Y-67052380D02*
X67609523Y-66052380D01*
X68609523Y-67052380D02*
X68038095Y-67052380D01*
X68323809Y-67052380D02*
X68323809Y-66052380D01*
X68228571Y-66195238D01*
X68133333Y-66290476D01*
X68038095Y-66338095D01*
X77978095Y-138892380D02*
X77978095Y-139701904D01*
X78025714Y-139797142D01*
X78073333Y-139844761D01*
X78168571Y-139892380D01*
X78359047Y-139892380D01*
X78454285Y-139844761D01*
X78501904Y-139797142D01*
X78549523Y-139701904D01*
X78549523Y-138892380D01*
X79549523Y-139892380D02*
X78978095Y-139892380D01*
X79263809Y-139892380D02*
X79263809Y-138892380D01*
X79168571Y-139035238D01*
X79073333Y-139130476D01*
X78978095Y-139178095D01*
X73017142Y-126182380D02*
X72683809Y-125706190D01*
X72445714Y-126182380D02*
X72445714Y-125182380D01*
X72826666Y-125182380D01*
X72921904Y-125230000D01*
X72969523Y-125277619D01*
X73017142Y-125372857D01*
X73017142Y-125515714D01*
X72969523Y-125610952D01*
X72921904Y-125658571D01*
X72826666Y-125706190D01*
X72445714Y-125706190D01*
X73969523Y-126182380D02*
X73398095Y-126182380D01*
X73683809Y-126182380D02*
X73683809Y-125182380D01*
X73588571Y-125325238D01*
X73493333Y-125420476D01*
X73398095Y-125468095D01*
X74921904Y-126182380D02*
X74350476Y-126182380D01*
X74636190Y-126182380D02*
X74636190Y-125182380D01*
X74540952Y-125325238D01*
X74445714Y-125420476D01*
X74350476Y-125468095D01*
X96353333Y-164452380D02*
X96020000Y-163976190D01*
X95781904Y-164452380D02*
X95781904Y-163452380D01*
X96162857Y-163452380D01*
X96258095Y-163500000D01*
X96305714Y-163547619D01*
X96353333Y-163642857D01*
X96353333Y-163785714D01*
X96305714Y-163880952D01*
X96258095Y-163928571D01*
X96162857Y-163976190D01*
X95781904Y-163976190D01*
X96829523Y-164452380D02*
X97020000Y-164452380D01*
X97115238Y-164404761D01*
X97162857Y-164357142D01*
X97258095Y-164214285D01*
X97305714Y-164023809D01*
X97305714Y-163642857D01*
X97258095Y-163547619D01*
X97210476Y-163500000D01*
X97115238Y-163452380D01*
X96924761Y-163452380D01*
X96829523Y-163500000D01*
X96781904Y-163547619D01*
X96734285Y-163642857D01*
X96734285Y-163880952D01*
X96781904Y-163976190D01*
X96829523Y-164023809D01*
X96924761Y-164071428D01*
X97115238Y-164071428D01*
X97210476Y-164023809D01*
X97258095Y-163976190D01*
X97305714Y-163880952D01*
X62512380Y-115736666D02*
X62036190Y-116070000D01*
X62512380Y-116308095D02*
X61512380Y-116308095D01*
X61512380Y-115927142D01*
X61560000Y-115831904D01*
X61607619Y-115784285D01*
X61702857Y-115736666D01*
X61845714Y-115736666D01*
X61940952Y-115784285D01*
X61988571Y-115831904D01*
X62036190Y-115927142D01*
X62036190Y-116308095D01*
X61940952Y-115165238D02*
X61893333Y-115260476D01*
X61845714Y-115308095D01*
X61750476Y-115355714D01*
X61702857Y-115355714D01*
X61607619Y-115308095D01*
X61560000Y-115260476D01*
X61512380Y-115165238D01*
X61512380Y-114974761D01*
X61560000Y-114879523D01*
X61607619Y-114831904D01*
X61702857Y-114784285D01*
X61750476Y-114784285D01*
X61845714Y-114831904D01*
X61893333Y-114879523D01*
X61940952Y-114974761D01*
X61940952Y-115165238D01*
X61988571Y-115260476D01*
X62036190Y-115308095D01*
X62131428Y-115355714D01*
X62321904Y-115355714D01*
X62417142Y-115308095D01*
X62464761Y-115260476D01*
X62512380Y-115165238D01*
X62512380Y-114974761D01*
X62464761Y-114879523D01*
X62417142Y-114831904D01*
X62321904Y-114784285D01*
X62131428Y-114784285D01*
X62036190Y-114831904D01*
X61988571Y-114879523D01*
X61940952Y-114974761D01*
X93813333Y-128892380D02*
X93480000Y-128416190D01*
X93241904Y-128892380D02*
X93241904Y-127892380D01*
X93622857Y-127892380D01*
X93718095Y-127940000D01*
X93765714Y-127987619D01*
X93813333Y-128082857D01*
X93813333Y-128225714D01*
X93765714Y-128320952D01*
X93718095Y-128368571D01*
X93622857Y-128416190D01*
X93241904Y-128416190D01*
X94670476Y-127892380D02*
X94480000Y-127892380D01*
X94384761Y-127940000D01*
X94337142Y-127987619D01*
X94241904Y-128130476D01*
X94194285Y-128320952D01*
X94194285Y-128701904D01*
X94241904Y-128797142D01*
X94289523Y-128844761D01*
X94384761Y-128892380D01*
X94575238Y-128892380D01*
X94670476Y-128844761D01*
X94718095Y-128797142D01*
X94765714Y-128701904D01*
X94765714Y-128463809D01*
X94718095Y-128368571D01*
X94670476Y-128320952D01*
X94575238Y-128273333D01*
X94384761Y-128273333D01*
X94289523Y-128320952D01*
X94241904Y-128368571D01*
X94194285Y-128463809D01*
X62512380Y-82716666D02*
X62036190Y-83050000D01*
X62512380Y-83288095D02*
X61512380Y-83288095D01*
X61512380Y-82907142D01*
X61560000Y-82811904D01*
X61607619Y-82764285D01*
X61702857Y-82716666D01*
X61845714Y-82716666D01*
X61940952Y-82764285D01*
X61988571Y-82811904D01*
X62036190Y-82907142D01*
X62036190Y-83288095D01*
X61512380Y-81811904D02*
X61512380Y-82288095D01*
X61988571Y-82335714D01*
X61940952Y-82288095D01*
X61893333Y-82192857D01*
X61893333Y-81954761D01*
X61940952Y-81859523D01*
X61988571Y-81811904D01*
X62083809Y-81764285D01*
X62321904Y-81764285D01*
X62417142Y-81811904D01*
X62464761Y-81859523D01*
X62512380Y-81954761D01*
X62512380Y-82192857D01*
X62464761Y-82288095D01*
X62417142Y-82335714D01*
X90622380Y-101766666D02*
X90146190Y-102100000D01*
X90622380Y-102338095D02*
X89622380Y-102338095D01*
X89622380Y-101957142D01*
X89670000Y-101861904D01*
X89717619Y-101814285D01*
X89812857Y-101766666D01*
X89955714Y-101766666D01*
X90050952Y-101814285D01*
X90098571Y-101861904D01*
X90146190Y-101957142D01*
X90146190Y-102338095D01*
X89622380Y-101433333D02*
X89622380Y-100814285D01*
X90003333Y-101147619D01*
X90003333Y-101004761D01*
X90050952Y-100909523D01*
X90098571Y-100861904D01*
X90193809Y-100814285D01*
X90431904Y-100814285D01*
X90527142Y-100861904D01*
X90574761Y-100909523D01*
X90622380Y-101004761D01*
X90622380Y-101290476D01*
X90574761Y-101385714D01*
X90527142Y-101433333D01*
X83653333Y-126182380D02*
X83320000Y-125706190D01*
X83081904Y-126182380D02*
X83081904Y-125182380D01*
X83462857Y-125182380D01*
X83558095Y-125230000D01*
X83605714Y-125277619D01*
X83653333Y-125372857D01*
X83653333Y-125515714D01*
X83605714Y-125610952D01*
X83558095Y-125658571D01*
X83462857Y-125706190D01*
X83081904Y-125706190D01*
X84034285Y-125277619D02*
X84081904Y-125230000D01*
X84177142Y-125182380D01*
X84415238Y-125182380D01*
X84510476Y-125230000D01*
X84558095Y-125277619D01*
X84605714Y-125372857D01*
X84605714Y-125468095D01*
X84558095Y-125610952D01*
X83986666Y-126182380D01*
X84605714Y-126182380D01*
X78573333Y-126182380D02*
X78240000Y-125706190D01*
X78001904Y-126182380D02*
X78001904Y-125182380D01*
X78382857Y-125182380D01*
X78478095Y-125230000D01*
X78525714Y-125277619D01*
X78573333Y-125372857D01*
X78573333Y-125515714D01*
X78525714Y-125610952D01*
X78478095Y-125658571D01*
X78382857Y-125706190D01*
X78001904Y-125706190D01*
X79525714Y-126182380D02*
X78954285Y-126182380D01*
X79240000Y-126182380D02*
X79240000Y-125182380D01*
X79144761Y-125325238D01*
X79049523Y-125420476D01*
X78954285Y-125468095D01*
X93507619Y-157575238D02*
X93460000Y-157670476D01*
X93364761Y-157765714D01*
X93221904Y-157908571D01*
X93174285Y-158003809D01*
X93174285Y-158099047D01*
X93412380Y-158051428D02*
X93364761Y-158146666D01*
X93269523Y-158241904D01*
X93079047Y-158289523D01*
X92745714Y-158289523D01*
X92555238Y-158241904D01*
X92460000Y-158146666D01*
X92412380Y-158051428D01*
X92412380Y-157860952D01*
X92460000Y-157765714D01*
X92555238Y-157670476D01*
X92745714Y-157622857D01*
X93079047Y-157622857D01*
X93269523Y-157670476D01*
X93364761Y-157765714D01*
X93412380Y-157860952D01*
X93412380Y-158051428D01*
X92412380Y-157289523D02*
X92412380Y-156670476D01*
X92793333Y-157003809D01*
X92793333Y-156860952D01*
X92840952Y-156765714D01*
X92888571Y-156718095D01*
X92983809Y-156670476D01*
X93221904Y-156670476D01*
X93317142Y-156718095D01*
X93364761Y-156765714D01*
X93412380Y-156860952D01*
X93412380Y-157146666D01*
X93364761Y-157241904D01*
X93317142Y-157289523D01*
X93507619Y-125825238D02*
X93460000Y-125920476D01*
X93364761Y-126015714D01*
X93221904Y-126158571D01*
X93174285Y-126253809D01*
X93174285Y-126349047D01*
X93412380Y-126301428D02*
X93364761Y-126396666D01*
X93269523Y-126491904D01*
X93079047Y-126539523D01*
X92745714Y-126539523D01*
X92555238Y-126491904D01*
X92460000Y-126396666D01*
X92412380Y-126301428D01*
X92412380Y-126110952D01*
X92460000Y-126015714D01*
X92555238Y-125920476D01*
X92745714Y-125872857D01*
X93079047Y-125872857D01*
X93269523Y-125920476D01*
X93364761Y-126015714D01*
X93412380Y-126110952D01*
X93412380Y-126301428D01*
X92507619Y-125491904D02*
X92460000Y-125444285D01*
X92412380Y-125349047D01*
X92412380Y-125110952D01*
X92460000Y-125015714D01*
X92507619Y-124968095D01*
X92602857Y-124920476D01*
X92698095Y-124920476D01*
X92840952Y-124968095D01*
X93412380Y-125539523D01*
X93412380Y-124920476D01*
X93507619Y-92805238D02*
X93460000Y-92900476D01*
X93364761Y-92995714D01*
X93221904Y-93138571D01*
X93174285Y-93233809D01*
X93174285Y-93329047D01*
X93412380Y-93281428D02*
X93364761Y-93376666D01*
X93269523Y-93471904D01*
X93079047Y-93519523D01*
X92745714Y-93519523D01*
X92555238Y-93471904D01*
X92460000Y-93376666D01*
X92412380Y-93281428D01*
X92412380Y-93090952D01*
X92460000Y-92995714D01*
X92555238Y-92900476D01*
X92745714Y-92852857D01*
X93079047Y-92852857D01*
X93269523Y-92900476D01*
X93364761Y-92995714D01*
X93412380Y-93090952D01*
X93412380Y-93281428D01*
X93412380Y-91900476D02*
X93412380Y-92471904D01*
X93412380Y-92186190D02*
X92412380Y-92186190D01*
X92555238Y-92281428D01*
X92650476Y-92376666D01*
X92698095Y-92471904D01*
X100790476Y-153332380D02*
X100790476Y-154046666D01*
X100742857Y-154189523D01*
X100647619Y-154284761D01*
X100504761Y-154332380D01*
X100409523Y-154332380D01*
X101790476Y-154332380D02*
X101219047Y-154332380D01*
X101504761Y-154332380D02*
X101504761Y-153332380D01*
X101409523Y-153475238D01*
X101314285Y-153570476D01*
X101219047Y-153618095D01*
X102409523Y-153332380D02*
X102504761Y-153332380D01*
X102600000Y-153380000D01*
X102647619Y-153427619D01*
X102695238Y-153522857D01*
X102742857Y-153713333D01*
X102742857Y-153951428D01*
X102695238Y-154141904D01*
X102647619Y-154237142D01*
X102600000Y-154284761D01*
X102504761Y-154332380D01*
X102409523Y-154332380D01*
X102314285Y-154284761D01*
X102266666Y-154237142D01*
X102219047Y-154141904D01*
X102171428Y-153951428D01*
X102171428Y-153713333D01*
X102219047Y-153522857D01*
X102266666Y-153427619D01*
X102314285Y-153380000D01*
X102409523Y-153332380D01*
X96062380Y-146423333D02*
X96776666Y-146423333D01*
X96919523Y-146470952D01*
X97014761Y-146566190D01*
X97062380Y-146709047D01*
X97062380Y-146804285D01*
X97062380Y-145899523D02*
X97062380Y-145709047D01*
X97014761Y-145613809D01*
X96967142Y-145566190D01*
X96824285Y-145470952D01*
X96633809Y-145423333D01*
X96252857Y-145423333D01*
X96157619Y-145470952D01*
X96110000Y-145518571D01*
X96062380Y-145613809D01*
X96062380Y-145804285D01*
X96110000Y-145899523D01*
X96157619Y-145947142D01*
X96252857Y-145994761D01*
X96490952Y-145994761D01*
X96586190Y-145947142D01*
X96633809Y-145899523D01*
X96681428Y-145804285D01*
X96681428Y-145613809D01*
X96633809Y-145518571D01*
X96586190Y-145470952D01*
X96490952Y-145423333D01*
X101266666Y-121582380D02*
X101266666Y-122296666D01*
X101219047Y-122439523D01*
X101123809Y-122534761D01*
X100980952Y-122582380D01*
X100885714Y-122582380D01*
X101885714Y-122010952D02*
X101790476Y-121963333D01*
X101742857Y-121915714D01*
X101695238Y-121820476D01*
X101695238Y-121772857D01*
X101742857Y-121677619D01*
X101790476Y-121630000D01*
X101885714Y-121582380D01*
X102076190Y-121582380D01*
X102171428Y-121630000D01*
X102219047Y-121677619D01*
X102266666Y-121772857D01*
X102266666Y-121820476D01*
X102219047Y-121915714D01*
X102171428Y-121963333D01*
X102076190Y-122010952D01*
X101885714Y-122010952D01*
X101790476Y-122058571D01*
X101742857Y-122106190D01*
X101695238Y-122201428D01*
X101695238Y-122391904D01*
X101742857Y-122487142D01*
X101790476Y-122534761D01*
X101885714Y-122582380D01*
X102076190Y-122582380D01*
X102171428Y-122534761D01*
X102219047Y-122487142D01*
X102266666Y-122391904D01*
X102266666Y-122201428D01*
X102219047Y-122106190D01*
X102171428Y-122058571D01*
X102076190Y-122010952D01*
X96062380Y-114673333D02*
X96776666Y-114673333D01*
X96919523Y-114720952D01*
X97014761Y-114816190D01*
X97062380Y-114959047D01*
X97062380Y-115054285D01*
X96062380Y-114292380D02*
X96062380Y-113625714D01*
X97062380Y-114054285D01*
X101266666Y-88562380D02*
X101266666Y-89276666D01*
X101219047Y-89419523D01*
X101123809Y-89514761D01*
X100980952Y-89562380D01*
X100885714Y-89562380D01*
X102171428Y-88562380D02*
X101980952Y-88562380D01*
X101885714Y-88610000D01*
X101838095Y-88657619D01*
X101742857Y-88800476D01*
X101695238Y-88990952D01*
X101695238Y-89371904D01*
X101742857Y-89467142D01*
X101790476Y-89514761D01*
X101885714Y-89562380D01*
X102076190Y-89562380D01*
X102171428Y-89514761D01*
X102219047Y-89467142D01*
X102266666Y-89371904D01*
X102266666Y-89133809D01*
X102219047Y-89038571D01*
X102171428Y-88990952D01*
X102076190Y-88943333D01*
X101885714Y-88943333D01*
X101790476Y-88990952D01*
X101742857Y-89038571D01*
X101695238Y-89133809D01*
X96062380Y-81653333D02*
X96776666Y-81653333D01*
X96919523Y-81700952D01*
X97014761Y-81796190D01*
X97062380Y-81939047D01*
X97062380Y-82034285D01*
X96062380Y-80700952D02*
X96062380Y-81177142D01*
X96538571Y-81224761D01*
X96490952Y-81177142D01*
X96443333Y-81081904D01*
X96443333Y-80843809D01*
X96490952Y-80748571D01*
X96538571Y-80700952D01*
X96633809Y-80653333D01*
X96871904Y-80653333D01*
X96967142Y-80700952D01*
X97014761Y-80748571D01*
X97062380Y-80843809D01*
X97062380Y-81081904D01*
X97014761Y-81177142D01*
X96967142Y-81224761D01*
X68246666Y-146542380D02*
X68246666Y-147256666D01*
X68199047Y-147399523D01*
X68103809Y-147494761D01*
X67960952Y-147542380D01*
X67865714Y-147542380D01*
X69151428Y-146875714D02*
X69151428Y-147542380D01*
X68913333Y-146494761D02*
X68675238Y-147209047D01*
X69294285Y-147209047D01*
X88463333Y-159167142D02*
X88415714Y-159214761D01*
X88272857Y-159262380D01*
X88177619Y-159262380D01*
X88034761Y-159214761D01*
X87939523Y-159119523D01*
X87891904Y-159024285D01*
X87844285Y-158833809D01*
X87844285Y-158690952D01*
X87891904Y-158500476D01*
X87939523Y-158405238D01*
X88034761Y-158310000D01*
X88177619Y-158262380D01*
X88272857Y-158262380D01*
X88415714Y-158310000D01*
X88463333Y-158357619D01*
X88796666Y-158262380D02*
X89415714Y-158262380D01*
X89082380Y-158643333D01*
X89225238Y-158643333D01*
X89320476Y-158690952D01*
X89368095Y-158738571D01*
X89415714Y-158833809D01*
X89415714Y-159071904D01*
X89368095Y-159167142D01*
X89320476Y-159214761D01*
X89225238Y-159262380D01*
X88939523Y-159262380D01*
X88844285Y-159214761D01*
X88796666Y-159167142D01*
X88463333Y-149007142D02*
X88415714Y-149054761D01*
X88272857Y-149102380D01*
X88177619Y-149102380D01*
X88034761Y-149054761D01*
X87939523Y-148959523D01*
X87891904Y-148864285D01*
X87844285Y-148673809D01*
X87844285Y-148530952D01*
X87891904Y-148340476D01*
X87939523Y-148245238D01*
X88034761Y-148150000D01*
X88177619Y-148102380D01*
X88272857Y-148102380D01*
X88415714Y-148150000D01*
X88463333Y-148197619D01*
X88844285Y-148197619D02*
X88891904Y-148150000D01*
X88987142Y-148102380D01*
X89225238Y-148102380D01*
X89320476Y-148150000D01*
X89368095Y-148197619D01*
X89415714Y-148292857D01*
X89415714Y-148388095D01*
X89368095Y-148530952D01*
X88796666Y-149102380D01*
X89415714Y-149102380D01*
X88463333Y-138847142D02*
X88415714Y-138894761D01*
X88272857Y-138942380D01*
X88177619Y-138942380D01*
X88034761Y-138894761D01*
X87939523Y-138799523D01*
X87891904Y-138704285D01*
X87844285Y-138513809D01*
X87844285Y-138370952D01*
X87891904Y-138180476D01*
X87939523Y-138085238D01*
X88034761Y-137990000D01*
X88177619Y-137942380D01*
X88272857Y-137942380D01*
X88415714Y-137990000D01*
X88463333Y-138037619D01*
X89415714Y-138942380D02*
X88844285Y-138942380D01*
X89130000Y-138942380D02*
X89130000Y-137942380D01*
X89034761Y-138085238D01*
X88939523Y-138180476D01*
X88844285Y-138228095D01*
M02*
