M48
; DRILL file {KiCad 5.1.5+dfsg1-2build2} date Fri 26 Mar 2021 04:18:24 PM PDT
; FORMAT={-:-/ absolute / inch / decimal}
; #@! TF.CreationDate,2021-03-26T16:18:24-07:00
; #@! TF.GenerationSoftware,Kicad,Pcbnew,5.1.5+dfsg1-2build2
; #@! TF.FileFunction,Plated,1,2,PTH
FMAT,2
INCH
T1C0.0157
T2C0.0295
T3C0.0315
T4C0.0394
T5C0.0433
T6C0.0512
T7C0.0906
T8C0.1260
%
G90
G05
T1
X2.4Y-3.3
X2.45Y-4.5
X2.5Y-3.5
X2.55Y-3.45
X2.65Y-5.3
X2.7Y-4.1
X2.75Y-4.65
X2.75Y-4.65
X2.8Y-4.05
X2.9Y-4.75
X3.05Y-3.85
X3.05Y-4.4
X3.15Y-3.65
X3.75Y-3.8
X3.85Y-3.4
X3.9476Y-5.65
X4.0Y-4.15
T2
X3.8Y-4.9
X3.8Y-4.95
X3.8Y-5.0
X3.8Y-3.6
X3.8Y-3.65
X3.8Y-3.7
X3.8Y-6.15
X3.8Y-6.2
X3.8Y-6.25
T3
X3.7Y-4.35
X3.7Y-4.65
X2.35Y-4.4
X2.35Y-4.7
X3.45Y-6.4
X3.5287Y-6.4
X3.55Y-5.15
X3.85Y-5.15
X3.1Y-5.05
X3.1Y-5.35
X2.9Y-5.05
X2.9Y-5.35
X3.85Y-3.85
X3.85Y-4.15
X3.3Y-5.05
X3.3Y-5.35
X3.65Y-6.75
X3.95Y-6.75
X3.45Y-6.0
X3.5287Y-6.0
X3.45Y-5.6
X3.5287Y-5.6
X3.7Y-3.05
X3.7Y-3.35
X2.35Y-3.1
X2.35Y-3.4
X2.8Y-2.45
X2.8Y-2.55
X2.8Y-2.65
X2.8Y-2.75
X2.8Y-2.85
X2.8Y-2.95
X2.8Y-3.05
X2.8Y-3.15
X2.8Y-3.25
X2.8Y-3.35
X2.8Y-3.45
X2.8Y-3.55
X2.8Y-3.65
X2.8Y-3.75
X2.8Y-3.85
X3.4Y-2.45
X3.4Y-2.55
X3.4Y-2.65
X3.4Y-2.75
X3.4Y-2.85
X3.4Y-2.95
X3.4Y-3.05
X3.4Y-3.15
X3.4Y-3.25
X3.4Y-3.35
X3.4Y-3.45
X3.4Y-3.55
X3.4Y-3.65
X3.4Y-3.75
X3.4Y-3.85
X3.65Y-3.85
X3.65Y-4.15
X3.7Y-5.6
X3.7Y-5.9
X3.65Y-6.55
X3.95Y-6.55
X3.55Y-5.35
X3.85Y-5.35
T4
X2.05Y-3.1728
X2.05Y-3.35
X2.0Y-5.1
X2.0Y-5.1984
X2.0Y-5.2969
X2.05Y-6.7728
X2.05Y-6.95
X2.35Y-3.95
X2.35Y-4.05
X2.7Y-5.9
X2.7Y-6.0
X2.7Y-6.1
X2.7Y-6.2
X2.0Y-3.9
X2.0Y-3.9984
X2.0Y-4.0969
X4.0Y-4.9
X4.0Y-5.0
X4.0Y-5.1
X3.0Y-4.55
X3.1Y-4.55
X3.2Y-4.55
X3.3Y-4.55
X4.0Y-6.15
X4.0Y-6.25
X4.0Y-6.35
X2.0Y-2.6
X2.0Y-2.6984
X2.0Y-2.7969
X4.0Y-3.6
X4.0Y-3.7
X4.0Y-3.8
X2.35Y-2.65
X2.35Y-2.75
X2.05Y-5.6728
X2.05Y-5.85
X2.35Y-5.15
X2.35Y-5.25
X2.05Y-6.2228
X2.05Y-6.4
X2.05Y-4.4728
X2.05Y-4.65
T5
X3.0Y-6.3
X3.1Y-6.3
X3.2Y-6.3
T6
X4.05Y-3.1031
X4.05Y-3.3
X2.1484Y-5.6236
X2.1484Y-5.8992
X2.1484Y-6.1736
X2.1484Y-6.4492
X2.1484Y-4.4236
X2.1484Y-4.6992
X4.05Y-5.6531
X4.05Y-5.85
X4.05Y-4.4031
X4.05Y-4.6
X2.1484Y-3.1236
X2.1484Y-3.3992
X3.0031Y-6.85
X3.2Y-6.85
X2.1484Y-6.7236
X2.1484Y-6.9992
T7
X2.1299Y-5.0016
X2.1299Y-5.3953
X2.1299Y-3.8016
X2.1299Y-4.1953
X2.1299Y-2.5016
X2.1299Y-2.8953
T8
X2.55Y-6.95
X2.55Y-2.5
X4.15Y-2.5
X4.15Y-6.95
T4
G00X3.565Y-2.6925
M15
G01X3.565Y-2.7713
M16
G05
G00X3.7894Y-2.6138
M15
G01X3.7106Y-2.6138
M16
G05
G00X3.7894Y-2.85
M15
G01X3.7106Y-2.85
M16
G05
T0
M30
